<?xml version="1.0" encoding="UTF-8"?>
<svg xmlns="http://www.w3.org/2000/svg" width="302.37" height="600" viewBox="328.81 -2.5 302.37 600" style="background-color:#5f80ce">
  <!-- Created using SVG Map Generator: dojo.amcharts.com/svg-map-generator -->
  <style>
    .land { fill: #ffffff; stroke: #000000; stroke-width: 0.5; }
  </style>
  <g id="polygons">
    <path d="M513.54,71.8L515.39,69.6L515.11,68.99L511.17,65.72L509.09,64.71L507.66,63.51L507,60.9L508.33,60.53L509.17,59.33L513.71,62.05L516.34,62.94L518.3,64.25L520.81,63.77L520.76,63.34L522.53,63.03L522.74,63.92L523.68,64.59L527.18,65.66L528.42,64.94L529.45,63.54L530.14,60.56L528.92,58.15L525.85,55.32L525.36,53.34L523.82,51.89L522.05,49.59L522,47.45L523.13,46.55L523.94,46.5L525.45,45.16L525.42,43.24L524.77,41.27L522.74,38.09L519.93,33.34L520.17,29.57L518.78,26.7L517.98,24.31L515.79,21.04L512.75,17.22L505.23,9.97L503.75,7.85L503.97,6.59L503.72,4.67L502.47,3.3L501.91,2.04L504.13,3.46L505.91,3.19L506.86,2.26L506.32,0.31L507.11,0L508.45,1.09L510.02,1.92L511.55,3.36L515.08,5.03L519.3,8.11L523.87,11.15L527.94,13.61L532.34,17.48L536.4,20.79L538.59,22.22L540.71,23.34L545.18,26.44L553.88,30.86L556.13,31.75L557.04,32.71L558.98,33.67L564.19,35.62L568.51,36.91L576,38.62L578.68,39.09L579.95,38.97L581.14,40.92L583.93,42.98L588.07,44L591.97,44.21L593.82,44.14L595.18,43.33L596,41.87L596.61,39.93L598.09,37.46L599.13,36.6L599.02,35.13L599.56,33.96L599.63,32.58L601.77,34.52L602.11,35.82L602.07,37.37L601.6,38.3L602.32,40.72L601.63,42.88L601.82,45.03L602.64,46.68L602.45,47.38L603.58,49.02L606.56,51.65L609.35,53.65L610.58,54.9L612.69,57.65L615.17,59.98L613.32,59.69L616.46,61.76L619.66,62.4L621.82,58.8L625.58,59.01L624.89,60.45L623.13,60.77L621.64,61.82L622.44,64.84L619.97,64.41L617.24,64.94L616.08,65.86L614.56,65.64L614.73,67.19L614.17,69.66L613.31,70.17L611.14,70.06L609.69,69.24L608.79,68.01L608.03,68.11L607.67,69.03L607.9,70.31L609.82,71.49L607.52,71.36L606.03,71L602.03,70.98L601.18,70.83L598.71,69.52L595.61,70.08L593.57,71.29L591.22,73.91L588.33,79.37L587.66,81.41L587.05,85.41L587.21,88.87L587.83,90.62L589.07,91.78L590.52,96.19L590.36,97.8L591.12,99.5L585.04,95.58L578.49,93.46L575.29,92.25L571.88,90.64L566.96,88.8L563.38,87.06L560.18,84.92L559.09,84.51L556.07,83.95L552.46,81.81L549.76,80.57L547.42,80.02L545.18,79.95L543.76,80.2L541.78,81.06L540.17,82.41L538.44,84.78L537.16,85.7L536.14,88.26L536.18,89.04L534.75,88.62L531.03,84.66L528.11,83.08L527.67,82.48L525.57,81.2L524.13,81.11L523.03,81.66L521.62,81.04L520.29,81.07L519.42,82.95L519.32,85.82L519.92,88.48L521.31,90.51L524.56,91.77L528.1,93.88L529.83,94.38L531.08,93.82L533.54,94.14L536.13,96.47L538.63,97.75L540.86,99.72L545.14,101.16L547.5,102.9L546.05,103.38L545.54,104.75L544.04,105.45L542.65,104.62L540.96,104.08L537.68,103.47L536.22,102.37L535.02,102.8L535.46,104.57L534.44,105.69L533.04,105.79L533.04,107.06L534.59,109.79L534.45,110.82L533.42,110.85L531.69,111.78L531.71,113.78L529.86,113.26L528.69,113.49L526.8,112.31L524.61,109.85L524.04,108.94L523.54,107.06L523.39,103.86L522.82,102.75L523.72,102.22L522.59,99.37L521.05,97.28L518.54,95.09L516.37,93.81L514.84,93.69L513.52,92.31L512.08,91.38L510.58,90.95L508.77,88.74L508.51,87.57L509,86.49L508.84,85.5L507.41,82.74L505.92,80.96L505.87,78.91L506.79,78.27L509.3,78.2L509.48,77.26L510.62,76.5L510.52,74.51L512.91,76.1L513.78,75.86L513.11,74.42L513.56,73.55ZM490.52,4.18L491.29,5.65L491.04,6.38L488.68,3.93L488.18,2.64L489.83,2.73ZM495.39,9.71L494.59,8.49L495.29,7.25L498.26,8.45L499.85,10.24L498.7,11.71L496.59,10.65ZM505.26,92.35L505.92,93.61L506.05,95.34L504.64,95.39L503.78,93.61L502.94,92.8L502.94,91.3L504.87,90.9Z" class="land" id="JP-01" title="Hokkaido"/>
    <path d="M577.86,140.55L576.38,141.81L576.71,142.71L576.08,143.45L574.26,142.62L573.54,142.71L572.2,143.9L570.85,142.74L569.44,144.35L567.93,144.76L567.8,145.84L566.08,147.05L564.54,146.2L564.18,145.82L563.57,143.46L563.89,143.17L562.59,141.18L560.31,141.43L559.23,139.26L558.09,139.41L558.41,140.58L557.56,140.47L555.46,141.87L553.83,140.96L553.15,141.87L551.21,140.58L550.31,140.58L549.56,139.68L548.14,139.8L548.11,140.87L547.05,140.68L545.73,141.09L544.67,140.8L543.07,140.94L541.78,140.05L541.09,140.43L541.27,141.38L539.29,141.12L538.64,139.2L537.64,137.64L536.67,136.71L535.61,136.76L535.01,135.88L536.25,134.36L536.43,132.43L537.47,131.68L539.23,132.42L540.26,131.28L541.12,131.17L541.08,128.84L540.46,126.65L538.48,122.59L537.3,121.79L537.77,121.07L536.62,117.93L538.22,118.66L539.51,119.72L541.08,119.91L541.65,118.83L543.08,119.23L544.52,120.34L545.32,122.42L547.13,125.11L549.72,128.63L551.84,130.01L552.85,129.78L553.49,128.4L552.52,126.48L552.1,124.93L554.07,125.51L556.27,127.11L557.55,127.6L558.62,128.54L559.61,128.74L560.19,127.85L560.27,126.73L559.9,124.74L558.82,122.13L558.87,120.91L556.93,118.72L555.08,117.42L554.47,117.52L554.4,119.24L553.56,120.1L551.63,119.66L551.23,120.35L549.37,120.7L548.89,121.64L547.59,121.14L546.4,118.15L545.87,116.24L545.98,115.54L545.33,113.59L545.69,111.14L545.17,109.99L547.96,111.66L549.5,111.77L550.77,112.31L553.61,114.4L555.71,115.3L556.77,115.42L558.33,114.55L559.61,115.3L561.15,120.54L562.14,122.33L563.82,125.98L565.37,128.68L567.46,131.94L570.69,136.2L573.09,138.19L574.68,138.51Z" class="land" id="JP-02" title="Aomori"/>
    <path d="M596.94,181.76L595.36,181.22L593.65,181.08L594.72,183.62L594.75,187.15L591.85,186.01L591.29,186.97L591.46,187.74L588.7,187.05L587.31,185.61L587.69,185L586.21,184.22L583.84,184.5L582.78,183.6L580.9,183.06L579.04,182.05L578.03,182.21L577.33,180.94L577.5,179.42L575.83,178.56L575.2,177.25L575.48,175.75L574.63,175.51L574.45,174.34L571.77,172.66L569.34,169.46L569.51,166.03L568.96,165.51L569.85,164.2L569.8,162.9L568.07,160.28L568.21,158.68L566.59,157.96L565.94,156.8L566.63,156.31L567.85,156.32L566.53,154.83L564.55,150.98L564.89,150.48L564.21,149.29L563.83,147.06L564.54,146.2L566.08,147.05L567.8,145.84L567.93,144.76L569.44,144.35L570.85,142.74L572.2,143.9L573.54,142.71L574.26,142.62L576.08,143.45L576.71,142.71L576.38,141.81L577.86,140.55L580.51,142.76L584.13,146.51L583.61,147.68L585.51,148.33L586.38,149.03L585.72,149.89L586.37,150.96L588.71,152.63L590.39,153.53L590.89,155.27L592.36,156.59L594.22,159.85L594.64,161.26L596.22,162.66L597.43,164.25L598.98,165.69L598.35,166.17L598.01,167.45L599.77,167.82L600,169.27L598.19,170.22L597.92,171.52L599.17,171.45L599.95,172.04L599.28,172.99L600.8,174.76L599.22,175.6L600.93,177.6L600.8,178.37L599.67,178.06L600.04,179.57L600.83,180.28L598.61,180.57L599.03,182.33Z" class="land" id="JP-03" title="Iwate"/>
    <path d="M595.47,211.94L593.9,212.04L595.06,214.48L593.44,214.5L592.32,214.98L590.63,213.58L590.25,212.29L588.29,211.45L585.71,211.79L584.43,210.53L582.77,209.75L581.78,210.39L579.85,209.65L578.76,207.43L580.71,207.41L581.55,206.79L581.23,205.65L581.67,203.88L580.77,202.51L580.42,201.37L580.93,199.89L580.45,198.96L581.08,197.94L580.94,196.16L578.68,193.92L578.46,192.6L577.22,191.39L578.38,191.12L578.26,189.84L577.5,188.76L577.7,187.54L576.52,187.04L575.75,185.86L574.08,184.34L576.28,184.14L577.32,182.4L578.03,182.21L579.04,182.05L580.9,183.06L582.78,183.6L583.84,184.5L586.21,184.22L587.69,185L587.31,185.61L588.7,187.05L591.46,187.74L591.29,186.97L591.85,186.01L594.75,187.15L594.72,183.62L593.65,181.08L595.36,181.22L596.94,181.76L598.31,183.7L597.23,184.09L598.01,185.94L596.91,186.87L597.03,187.48L598.54,188.24L597.33,189.91L597.49,190.79L599.15,191.14L599.38,191.89L598.67,193.2L601.08,194.23L601.25,195.29L600.03,194.69L600.9,196.53L601.03,197.9L601.96,198.18L603.69,200.19L603.51,201.22L600.42,199.22L601.01,198.48L600.06,197.77L599.26,198.17L598.42,197.46L596.92,197.27L595.39,197.78L594.41,198.71L592.96,198.12L592.17,198.59L592.35,199.87L593.7,200.71L592.66,201.54L592.41,203.97L592.61,205.59L594.08,209.74Z" class="land" id="JP-04" title="Miyagi"/>
    <path d="M539.29,141.12L541.27,141.38L541.09,140.43L541.78,140.05L543.07,140.94L544.67,140.8L545.73,141.09L547.05,140.68L548.11,140.87L548.14,139.8L549.56,139.68L550.31,140.58L551.21,140.58L553.15,141.87L553.83,140.96L555.46,141.87L557.56,140.47L558.41,140.58L558.09,139.41L559.23,139.26L560.31,141.43L562.59,141.18L563.89,143.17L563.57,143.46L564.18,145.82L564.54,146.2L563.83,147.06L564.21,149.29L564.89,150.48L564.55,150.98L566.53,154.83L567.85,156.32L566.63,156.31L565.94,156.8L566.59,157.96L568.21,158.68L568.07,160.28L569.8,162.9L569.85,164.2L568.96,165.51L569.51,166.03L569.34,169.46L571.77,172.66L574.45,174.34L574.63,175.51L575.48,175.75L575.2,177.25L575.83,178.56L577.5,179.42L577.33,180.94L578.03,182.21L577.32,182.4L576.28,184.14L574.08,184.34L571.55,183.25L569.95,181.27L568.7,181.18L567.9,180.32L566.81,180.62L562.82,179.58L560.65,178.6L559.8,177.31L558.63,178.08L555.57,177.63L555.57,176.01L554.83,174.99L554.65,172.87L555.39,172.75L555.19,170.12L553.89,165.52L552.93,163.14L551.78,160.97L549.54,157.97L547.11,156.2L547.25,155.31L548.2,155.57L549.35,156.53L547.68,151.93L546.9,151.12L545.46,150.65L545.01,152L545.43,154.25L546.26,154.71L546.84,156.08L545.85,155.77L544.85,156.21L545.49,157.14L542.66,156.73L540.99,155.03L540.06,153.62L540.89,153.5L542.7,154.26L543.77,153.57L544.24,152.44L544.38,150.74L544,148.14L543.07,144.89L542.2,143.08Z" class="land" id="JP-05" title="Akita"/>
    <path d="M579.85,209.65L580.39,211.57L581.48,213.83L582.32,214.29L581.63,216.1L580.01,215.81L578.9,216.31L577.2,215.18L576.03,215.69L574.07,213.8L573.19,214.29L572.3,213.85L571.53,214.5L570.46,213.73L569.65,213.94L568.75,213.07L567.4,212.86L566.05,211.56L565.08,208L565.61,207.43L564.82,206.58L564.78,205.66L563.92,204.2L564.08,203.28L565.99,203.52L567.11,202.56L567.18,200.78L565.23,199.41L562.88,198.87L561.38,197.61L560.8,195.38L558.52,194.7L555.96,193.63L555.75,193.26L555.69,190.2L556.88,188.52L557.36,187.24L557.23,185.21L556.5,182L556.68,181.19L556.08,178.27L555.57,177.63L558.63,178.08L559.8,177.31L560.65,178.6L562.82,179.58L566.81,180.62L567.9,180.32L568.7,181.18L569.95,181.27L571.55,183.25L574.08,184.34L575.75,185.86L576.52,187.04L577.7,187.54L577.5,188.76L578.26,189.84L578.38,191.12L577.22,191.39L578.46,192.6L578.68,193.92L580.94,196.16L581.08,197.94L580.45,198.96L580.93,199.89L580.42,201.37L580.77,202.51L581.67,203.88L581.23,205.65L581.55,206.79L580.71,207.41L578.76,207.43Z" class="land" id="JP-06" title="Yamagata"/>
    <path d="M605.51,240.89L603.56,240.49L601.05,239.7L600.9,240.54L599.88,241.1L599.21,242.71L596.63,241.57L595.65,240.25L594.59,239.97L593.21,238.8L592.56,238.76L591.42,237.04L590.06,236.12L589.57,235.25L586.76,233.6L583.17,232.7L581.11,232.87L580.5,233.36L580.75,234.39L577.99,235.38L575.71,237.52L574.28,237.8L573.99,238.96L573.13,239.46L569.46,238.45L568.57,235.56L567.38,233.98L567.14,232.52L566.13,231.46L564.19,230.37L564.59,228.78L563.78,226.12L562.72,225.48L562.9,224.44L564.17,224.39L565.72,223.84L566.73,223.95L566.37,222.77L567.27,222.54L569.73,222.88L569,220.78L567.66,218.79L568.87,217.62L568.73,215.87L569.65,213.94L570.46,213.73L571.53,214.5L572.3,213.85L573.19,214.29L574.07,213.8L576.03,215.69L577.2,215.18L578.9,216.31L580.01,215.81L581.63,216.1L582.32,214.29L581.48,213.83L580.39,211.57L579.85,209.65L581.78,210.39L582.77,209.75L584.43,210.53L585.71,211.79L588.29,211.45L590.25,212.29L590.63,213.58L592.32,214.98L593.44,214.5L595.06,214.48L593.9,212.04L595.47,211.94L596.56,213.38L597.6,213.86L598.32,215.31L599.21,216.16L601.74,220.96L602.96,222.96L604.67,226.72L604.86,227.79L606.63,233.09L607.85,237.73L606.5,239.08L605.58,239.35Z" class="land" id="JP-07" title="Fukushima"/>
    <path d="M621.29,272.81L617.65,271.03L616.25,269.6L614.06,268.95L612.27,267.83L611.24,267.87L609.73,267.27L607.69,267.87L607.11,268.82L606.08,268.56L603.59,269.37L602.56,268.54L599.31,267.54L597.48,266.54L595.15,264.57L592.06,262.3L591.28,262.59L589.31,260.33L589.06,259.3L589.87,259.23L591.32,258.23L591.11,256.28L592.55,256.6L592.24,255.59L593.77,254.68L595.75,253.97L595.99,253.43L597.61,253.85L597.32,252.28L597.44,250.15L596.5,248.07L594.86,245.84L595.97,245.15L594.69,243.65L594.29,242.16L593.47,241.03L592.56,238.76L593.21,238.8L594.59,239.97L595.65,240.25L596.63,241.57L599.21,242.71L599.88,241.1L600.9,240.54L601.05,239.7L603.56,240.49L605.51,240.89L605.56,240.91L605.6,240.92L605.42,242.94L606.1,247.52L605.9,248.86L606.16,251.46L607.02,253.58L607.8,254.77L607.27,256.8L608.22,258.72L610.89,262.5L613.8,265.87L616.37,268.3L616.72,268.85L619.83,271.73Z" class="land" id="JP-08" title="Ibaraki"/>
    <path d="M592.56,238.76L593.47,241.03L594.29,242.16L594.69,243.65L595.97,245.15L594.86,245.84L596.5,248.07L597.44,250.15L597.32,252.28L597.61,253.85L595.99,253.43L595.75,253.97L593.77,254.68L592.24,255.59L592.55,256.6L591.11,256.28L591.32,258.23L589.87,259.23L589.06,259.3L587.89,258.83L586.32,257.31L585.13,257.53L584.1,257.04L583.1,257.36L581.33,256.24L581.09,255.58L579.49,254.68L579.18,254.08L579.44,252.27L579.04,250.92L579.52,248.8L578.78,248.03L577.41,248.1L575.35,247.25L574.87,245.68L575.1,244.67L574.19,243.33L574.64,241.72L573.25,241.22L573.13,239.46L573.99,238.96L574.28,237.8L575.71,237.52L577.99,235.38L580.75,234.39L580.5,233.36L581.11,232.87L583.17,232.7L586.76,233.6L589.57,235.25L590.06,236.12L591.42,237.04Z" class="land" id="JP-09" title="Tochigi"/>
    <path d="M587.89,258.83L587.35,259.7L586.52,259.15L585.4,259.6L583.85,259.71L581.1,258.16L580.22,258.4L578.35,258.24L575.98,257.25L575.15,257.19L574.72,259.46L575.05,261.41L573.34,261.49L573.03,262.55L571.65,262.86L571.1,264.02L569.69,264.05L569.33,265.21L567.5,264.49L566.4,262.05L565.14,259.94L563.25,257.21L564.04,256.78L563.44,254.73L562.54,253.41L561.46,253.13L560.4,253.7L558.65,253.68L556.85,252.83L556.13,251.34L555.48,248.3L556.81,245.29L558.11,245.16L559.7,244.16L560.16,243.63L561.75,244.13L562.15,242.79L563.34,241.04L563.2,239.96L564.22,240.08L562.92,237.59L564.64,237.26L565.22,236.44L565.14,235.43L567.42,237.12L567.92,237.98L569.46,238.45L573.13,239.46L573.25,241.22L574.64,241.72L574.19,243.33L575.1,244.67L574.87,245.68L575.35,247.25L577.41,248.1L578.78,248.03L579.52,248.8L579.04,250.92L579.44,252.27L579.18,254.08L579.49,254.68L581.09,255.58L581.33,256.24L583.1,257.36L584.1,257.04L585.13,257.53L586.32,257.31Z" class="land" id="JP-10" title="Gunma"/>
    <path d="M600.96,274.2L600.18,273.32L597.82,270.7L597.68,268.85L594.15,265.12L593.57,263.92L592.06,262.3L595.15,264.57L597.48,266.54L599.31,267.54L602.56,268.54L603.59,269.37L606.08,268.56L607.11,268.82L607.69,267.87L609.73,267.27L611.24,267.87L612.27,267.83L614.06,268.95L616.25,269.6L617.65,271.03L621.29,272.81L618.87,273.54L617.84,273.29L616.32,274.06L614.98,275.91L614.16,277.73L613.95,280.25L614.32,281.94L615.16,283.65L615.91,284.4L616.62,287.72L615.92,287.88L615.88,289.08L614,289.57L611.57,289.63L611.17,290.91L609.57,292.51L609.75,295.32L608.75,295.82L607.7,295.73L606.74,294.73L605.13,294.16L606.86,293.39L606.49,292.32L605.22,291.13L603.76,287.67L604.48,286.84L603.31,284.9L602.22,284.37L602.18,282.45L603.49,282.93L603,281.55L603.09,280.62L604.5,280.11L605.04,277.74L605.47,277.13L604.88,276.22L601.61,273.86Z" class="land" id="JP-12" title="Chiba"/>
    <path d="M519.9,238.05L518.43,237.94L517.34,238.47L516.8,239.41L517.19,240.49L517.22,242.14L517.85,243.79L517.54,244.53L518.33,246.17L518.06,247.58L519.64,249.53L520.24,252.93L521.69,255.1L522.13,256.6L524.03,258.22L523.67,259.83L523.19,260.41L523.8,261.26L523.76,262.52L521.83,263.08L521.25,262.36L518.4,260.67L516.04,261.11L514.91,260.23L513.28,259.94L512.39,258.51L509.68,256.67L510.26,255.06L511.15,254.69L512.1,253.13L514.27,246.22L514.54,243.96L514.56,241.71L514.19,239.62L513.09,237L511.27,235.31L510.56,233.36L508.99,232.78L508.52,230.13L508.8,229.73L507.97,227.84L509.23,226.08L510.27,225.51L511.69,225.82L514.26,224.14L515.32,222.94L516.69,222.75L517.83,221.94L519.07,222.08L520.79,224.29L519.07,224.56L518.65,224.97L518.92,226.3L520.12,227.49L519.86,228.6L517.79,228.54L517.02,229.11L517.11,230.8L516.22,231.77L515.31,231.17L513.86,230.9L513.61,232.84L513.92,233.94L515.21,234.33L517.05,235.59L518.11,234.07Z" class="land" id="JP-17" title="Ishikawa"/>
    <path d="M509.68,256.67L512.39,258.51L513.28,259.94L514.91,260.23L516.04,261.11L518.4,260.67L521.25,262.36L521.83,263.08L523.76,262.52L524.25,265.12L525.21,266.16L527.34,267.66L528.28,269.07L527.97,270.51L526.41,270.48L526.19,270.86L523.29,271.26L522.25,271.02L520.17,271.33L518.82,270.79L517.82,271.4L518.28,272.53L517.94,274.43L514.7,273.5L515.18,274.63L516.47,276.32L516.68,277.19L515.25,276.82L515.37,278.06L513.94,278.21L513.36,279.34L512.1,278.45L512,279.45L512.39,281L511.71,281.99L510.36,281.52L510,283.09L508.55,283.39L506.53,282.7L504.45,282.48L503.88,281.46L501.79,280.05L501.65,278.88L500.85,278.39L500.89,277.35L501.98,277.55L502.26,278.81L503.05,279.25L505.74,279.56L507.21,279.43L507.49,278.09L509.3,277.89L509.23,276.46L511.47,275.46L510.7,273.49L509.87,272.7L510.82,271.55L511.56,272.24L511.98,273.9L513.29,274.4L513.11,272.63L512.52,271.15L511.32,269.84L508.84,268.09L508.4,266.81L506.91,265.43L507.51,263.96L507.18,262.25L507.69,261.17L508.09,258.69Z" class="land" id="JP-18" title="Fukui"/>
    <path d="M503.04,312.66L503.65,313.56L501.66,314.56L500.9,315.52L499.45,315.75L496.57,312.88L496.9,311.75L497.89,311.76L498.1,308.43L498.83,307.89L499.23,306.12L500.12,305.61L500.49,304.29L501.89,304.93L501.71,306.68L500.74,309.43L501.45,311.25ZM484.67,300.4L483.41,298.79L481.29,297.1L481.49,295.57L480.3,294.57L480.6,291.8L480.24,290.71L480.8,290.43L480.56,289.14L481.53,288.92L480.38,287.52L480.34,286.31L481.13,286.62L482.47,285.27L481.41,283.06L480.49,282.56L479.88,281.04L478.88,280.64L477.41,277.88L476.27,276.38L475.22,275.78L477.36,275.02L478.41,274.16L479.94,274.51L480.64,275.05L481.27,274.28L484.96,274.56L486.05,274.49L487.04,276.84L489.86,278.68L491.07,277.92L491.71,278.54L492.96,281.6L492.15,282.21L491.08,281.61L490.44,281.89L491.25,284.21L493.26,284.92L495.61,286.2L495.98,285.7L497.17,285.73L498.3,287.01L498.92,288.25L501.23,288.23L501.63,289.08L503.88,289.45L504.65,290.43L504.54,291.8L504.86,293.95L505.34,294.35L508.04,295.06L507.89,297.23L508.25,298.34L509.69,299.79L510.54,301.48L510.48,302.9L509.23,301.35L508.32,301.73L507.56,301.02L506.38,300.87L504.67,301.82L504.73,302.78L502.06,303.53L500.95,302.99L496.33,301.5L493.63,299.57L492.2,299.72L490.59,299.47L487.01,299.6L486.17,300.66Z" class="land" id="JP-28" title="Hyogo"/>
    <path d="M475.25,319.9L477.76,320.77L477.73,321.57L478.75,323.39L478.51,324.47L475.93,324.51L475.35,325.94L472.99,326.02L470.31,325.89L470.25,326.96L468.81,326.93L468.72,328.69L468.32,330.75L467.66,330.87L467.78,333.07L468.51,334.03L468.07,335.73L466.83,336.13L464.2,335.82L464.09,336.69L464.69,337.82L466.83,339.52L467.13,340.46L465.2,341.51L465.38,343.5L464.2,345.44L462.69,344.34L462.92,345.51L464.19,346.54L464.37,347.64L465.52,349.15L466.09,350.74L465.77,351.32L464.42,351.61L463.5,350.66L462.58,351.03L462.66,351.85L461.62,351.78L461.01,350.89L460.78,348.81L459.73,346.87L459.97,345.69L458.78,345.44L457.92,344.77L459.36,343.09L457.67,340L456.29,340.63L454.91,339.66L454.13,337.44L454.69,336.7L452.8,335.44L450.81,337.19L449.69,337.58L448.98,338.92L447.93,338.26L448.21,337.33L449.27,336.53L451,336.02L453.74,333.76L454.28,331.98L456.35,330.77L457.49,329.39L457.81,327.75L456.75,325.71L456.5,323.69L457.45,323.56L457.07,321.36L458.36,319.38L459.57,319.19L459.23,317.08L462.26,319.78L464.83,322.76L465.58,323.19L468.36,322.29L468.01,321.75L469.92,321.26L471.18,321.29L473.6,321.92L474.71,321.24Z" class="land" id="JP-38" title="Ehime"/>
    <path d="M424.89,332.32L425.59,333.71L425.17,335.05L422.31,334.7L421.34,334.97L420.09,336.62L420.47,338.6L420.14,339.78L420.89,340.91L420.53,341.99L421.3,343.41L422.42,343.99L422.64,345.95L422.35,346.24L420.34,345.62L419.31,344.9L417.89,345.07L418.04,346.19L416.23,345.98L415,347.77L415.73,348.78L414.81,349.16L413.17,348.96L413.24,347.64L412.52,346.68L410.66,345.02L410.32,343.54L410.54,342.3L412.88,339.6L411.91,336.91L410.59,336.96L409.86,338.09L408.82,337.23L407.86,337.03L405.41,335.76L403.58,336.07L400.1,336L399.98,335.19L401.7,334.8L402.04,334.04L401.29,333.21L401.15,331.5L402.78,330.9L403.04,331.84L405.84,332.43L406.82,331.85L406.83,327.48L406.14,327.06L406.31,325.22L406.8,324.15L408.11,324.47L409.87,323.87L410.28,322.76L411.76,323.3L412.12,322.89L414.37,323.36L415.13,324.05L415.86,323.72L415.89,322.81L416.89,321.9L417.58,322.67L417.27,323.88L417.89,325.01L417.3,325.85L419.33,327.57L420.23,329.25L422.78,331.75L423.31,331.41Z" class="land" id="JP-40" title="Fukuoka"/>
    <path d="M442.17,314.66L440.24,314.52L439,312.79L438.8,312.04L437.38,311.12L435.65,307.76L434.81,307.02L434.86,306.26L435.88,305.26L435.31,303.17L435.64,301.96L434.85,301.56L435.42,300.5L436.13,300.23L436.32,298.48L439.93,299.15L441,298.66L442.95,298.82L444.15,297.57L446.12,297.41L445.7,296.38L444.31,295.87L444.67,294.41L445.93,294.12L446.59,291.36L447.15,290.22L449.22,290.95L449.84,290.23L451.34,291.16L452.78,290.66L453.55,290.93L455.95,290.86L456.67,291.45L458.4,292.88L458.43,294.29L459.17,296.16L461.94,298.51L462.13,299.83L463.48,302.06L464.11,303.69L466.28,305.64L467.22,307.68L467.28,309.15L466.3,309.26L466.67,310.32L465.84,310.45L463.42,310.09L463.52,308.91L460.84,310.31L459.95,310.21L460.13,311.36L458.86,311.83L457.28,311.58L456.07,311.89L455.42,312.87L454.09,312.29L454.01,314.3L452.71,314.4L451.58,315.39L450.34,315.11L449.49,316.64L450.45,318.38L448.79,318.69L448.31,317.99L449.35,317.24L448.73,315.96L449.13,315.44L448.78,314.29L447.16,312.23L446.89,311.09L445.08,310.32L443.37,311.07L442.4,313.36Z" class="land" id="JP-34" title="Hiroshima"/>
    <path d="M492.73,315.24L492.61,316.64L488.89,316L487,316.21L486.41,316.9L486.46,317.8L485.09,317.97L484.64,318.71L483.6,319.04L482.16,317.89L479.07,318.9L477.76,320.77L475.25,319.9L475.81,319.3L474.77,315.65L472.46,314.22L472.71,313.72L474.91,314.68L475.47,314.48L477.06,312.24L478.52,311.44L478.28,310.31L481.01,311.14L482.91,311.23L483.59,309.81L484.38,310.26L484.99,311.83L485.87,311.33L487.26,311.6L487.57,313.02L490.66,313.99Z" class="land" id="JP-37" title="Kagawa"/>
    <path d="M580.89,281.79L580.8,280.47L583.43,278.64L583.78,277.22L582.46,274.51L582.52,274.18L584.77,274.94L585.93,276.09L586.85,275.9L589.7,276.73L592.52,278.9L591.45,276.09L591.88,275.04L595.59,276.51L597.15,278.01L597.86,277.78L598.7,278.63L597.38,279.54L597.88,280.66L597.59,282.25L598.55,283.8L598.5,284.61L599.98,285.52L600.88,285.52L601.36,287.03L600.1,287.77L601.13,289.07L599.57,289.04L599.16,287.65L596.89,284.74L593.66,284.01L589.63,284.76L588,286.26L588.36,287.9L588.27,289.11L586.42,288.87L584.87,287.44L583.85,285.67L584.05,283.82L582.61,281.75Z" class="land" id="JP-14" title="Kanagawa"/>
    <path d="M599.97,301.78L598.99,301.31L597.89,299.19L597.92,298.61L599.54,299.11L600.58,300.2L601.12,301.97ZM626.66,346.4L625.34,345.29L625.93,344.69L627.56,345.83L628.69,346.98L628.13,347.56ZM626.66,346.4L628.13,347.56L628.69,346.98L627.56,345.83L625.93,344.69L625.34,345.29ZM600.5,309.02L601.24,311.4L600.47,311.26L600.13,309.78ZM597.15,278.01L595.59,276.51L591.88,275.04L591.45,276.09L592.52,278.9L589.7,276.73L586.85,275.9L585.93,276.09L584.77,274.94L582.52,274.18L579.53,272.84L578.29,271.71L577.07,269.93L576.12,269.08L576.11,268.57L577.41,267.9L578.49,268.52L580.54,268.85L582,269.5L583.96,269.52L585.39,270.67L587.26,271.55L588.68,271.51L590.14,270.65L590.89,271.66L592.61,270.77L593.61,270.59L595.11,271L595.01,270.28L596.79,270.78L597.82,270.7L600.18,273.32L600.96,274.2L601.13,275.02L600.46,275.68L597.97,275.13L596.92,274.55L597.35,276.36L598.08,277.66Z" class="land" id="JP-13" title="Tokyo"/>
    <path d="M555.96,193.63L558.52,194.7L560.8,195.38L561.38,197.61L562.88,198.87L565.23,199.41L567.18,200.78L567.11,202.56L565.99,203.52L564.08,203.28L563.92,204.2L564.78,205.66L564.82,206.58L565.61,207.43L565.08,208L566.05,211.56L567.4,212.86L568.75,213.07L569.65,213.94L568.73,215.87L568.87,217.62L567.66,218.79L569,220.78L569.73,222.88L567.27,222.54L566.37,222.77L566.73,223.95L565.72,223.84L564.17,224.39L562.9,224.44L562.72,225.48L563.78,226.12L564.59,228.78L564.19,230.37L566.13,231.46L567.14,232.52L567.38,233.98L568.57,235.56L569.46,238.45L567.92,237.98L567.42,237.12L565.14,235.43L565.22,236.44L564.64,237.26L562.92,237.59L564.22,240.08L563.2,239.96L563.34,241.04L562.15,242.79L561.75,244.13L560.16,243.63L559.7,244.16L558.76,243.33L558.93,242.35L558.23,241L556.28,240.13L554.9,238.98L554.33,237.47L553.38,236.4L552.33,236.14L549.8,237.07L549.76,238.85L548.67,239.46L549.27,241.14L547.29,240.61L546.46,241.35L545.05,241.38L544.52,242.59L543.09,241.81L542.93,240.05L542.37,239.69L540.04,239.24L538.93,239.34L539.67,240.81L539.43,242.31L538.38,243.51L535.74,240.02L535.11,238.66L534.05,238.37L532.84,237.45L538.05,235.19L539.44,233.68L540.28,233.33L540.77,232.08L542.18,232.39L543.47,232.18L544.98,230.79L546.57,227.79L548.44,226.6L549.21,221.95L549.87,221.29L549.96,218.62L549.45,216.73L549.26,214.76L549.74,213.52L552.87,210.22L555.26,209.52L556.63,208.27L557.65,206.16L558.02,203.92L557.67,202.14L555.81,197.81ZM536.57,204.22L536.54,205.63L537.31,206.83L538.25,207.16L539.22,206.62L540.34,207.16L540.27,210.46L540.5,211.14L538.51,213.65L537.29,213.71L536.12,213.31L536.21,212.11L535.69,211.52L536.42,210.03L535.27,208.84L534.38,208.86L533.83,209.64L532.69,207.18L533.06,205.14L533.04,203.36L534.71,201.62L534.44,200.76L535.55,199.6L536.7,203.2Z" class="land" id="JP-15" title="Niigata"/>
    <path d="M532.84,237.45L534.05,238.37L535.11,238.66L535.74,240.02L538.38,243.51L538.68,244.78L539.54,246.24L540.23,248.3L539.24,249.1L539.29,251.3L539.61,253.1L539,254.09L537.9,254.01L536.95,253.26L535.87,253.45L534.41,253.05L533.7,252.16L532.55,253.08L531.11,251.96L529.77,252.75L528.32,252.53L527.26,254.59L527.54,255.92L526.55,257.32L525.29,255.51L523.17,254.65L522.57,255.29L522.76,256.51L522.13,256.6L521.69,255.1L520.24,252.93L519.64,249.53L518.06,247.58L518.33,246.17L517.54,244.53L517.85,243.79L517.22,242.14L517.19,240.49L516.8,239.41L517.34,238.47L518.43,237.94L519.9,238.05L519.4,240.34L520.54,241.59L522.96,243.02L525.37,243.72L526.38,243.46L528.65,243.56L529.44,242.29L529.34,241.14L528.7,239.75L528.78,238.94L529.95,238.13Z" class="land" id="JP-16" title="Toyama"/>
    <path d="M582.52,274.18L582.46,274.51L583.78,277.22L583.43,278.64L580.8,280.47L580.89,281.79L580.31,282.25L576.18,283.02L575.19,281.89L574.07,282.03L572.79,280.57L572.1,281.62L573,283.62L572.79,284.34L574.55,287.45L574.02,288.17L572.54,288.03L571.5,287.45L569.4,284.31L568.35,283.89L567.72,284.5L566.91,284.14L565.69,282.39L565.75,281.3L564.97,280.06L564.84,278.69L562.57,275.25L562.19,274.99L560.49,272.93L561.09,271.65L559.66,270.65L559.81,268.37L561.11,268.95L561.8,265.81L563.18,266.2L564.86,267.88L565.43,267.3L567.46,267.33L568.35,268.56L569.75,268.64L570.59,267.56L571.87,267.83L572.53,268.57L573.95,268.79L575.01,269.41L576.12,269.08L577.07,269.93L578.29,271.71L579.53,272.84Z" class="land" id="JP-19" title="Yamanashi"/>
    <path d="M570.59,267.56L570.57,266.96L569.33,265.21L569.69,264.05L571.1,264.02L571.65,262.86L573.03,262.55L573.34,261.49L575.05,261.41L574.72,259.46L575.15,257.19L575.98,257.25L578.35,258.24L580.22,258.4L581.1,258.16L583.85,259.71L585.4,259.6L586.52,259.15L587.35,259.7L587.89,258.83L589.06,259.3L589.31,260.33L591.28,262.59L592.06,262.3L593.57,263.92L594.15,265.12L597.68,268.85L597.82,270.7L596.79,270.78L595.01,270.28L595.11,271L593.61,270.59L592.61,270.77L590.89,271.66L590.14,270.65L588.68,271.51L587.26,271.55L585.39,270.67L583.96,269.52L582,269.5L580.54,268.85L578.49,268.52L577.41,267.9L576.11,268.57L576.12,269.08L575.01,269.41L573.95,268.79L572.53,268.57L571.87,267.83Z" class="land" id="JP-11" title="Saitama"/>
    <path d="M551.5,285L551.88,283.63L550.96,282.13L551.82,281.8L550.45,280.38L550.94,279.85L550.49,278.79L549.57,278.16L548.75,278.57L547.88,277.88L547.42,276.61L546.6,275.75L546.62,274.6L545.38,273.79L543.59,271.71L540.48,270.68L539.82,269.6L540.38,269.31L540.26,268.08L541.42,267.68L542.4,267.98L542.92,265.58L543.68,264.69L543.37,262.88L541.64,262.02L541.26,261.08L541.77,260.26L540.85,259.03L541.29,257.25L541.28,256.04L539,254.09L539.61,253.1L539.29,251.3L539.24,249.1L540.23,248.3L539.54,246.24L538.68,244.78L538.38,243.51L539.43,242.31L539.67,240.81L538.93,239.34L540.04,239.24L542.37,239.69L542.93,240.05L543.09,241.81L544.52,242.59L545.05,241.38L546.46,241.35L547.29,240.61L549.27,241.14L548.67,239.46L549.76,238.85L549.8,237.07L552.33,236.14L553.38,236.4L554.33,237.47L554.9,238.98L556.28,240.13L558.23,241L558.93,242.35L558.76,243.33L559.7,244.16L558.11,245.16L556.81,245.29L555.48,248.3L556.13,251.34L556.85,252.83L558.65,253.68L560.4,253.7L561.46,253.13L562.54,253.41L563.44,254.73L564.04,256.78L563.25,257.21L565.14,259.94L566.4,262.05L567.5,264.49L569.33,265.21L570.57,266.96L570.59,267.56L569.75,268.64L568.35,268.56L567.46,267.33L565.43,267.3L564.86,267.88L563.18,266.2L561.8,265.81L561.11,268.95L559.81,268.37L559.66,270.65L561.09,271.65L560.49,272.93L562.19,274.99L562.33,276.89L561.52,277.48L562.71,279.36L562.55,281.05L563.49,281.82L563.68,282.66L562.09,283.39L560.63,285.1L559.41,285.84L559.33,286.93L558.15,287.05L557.31,287.36L555.78,286.6L554.5,286.68L552.9,287.51L551.54,285.97Z" class="land" id="JP-20" title="Nagano"/>
    <path d="M526.27,286.95L525.38,285.89L525.08,284.21L524.47,282.64L524.9,282.12L523.88,281.14L523.5,279.97L522.47,279.22L521.79,277.96L520.19,277.61L519.55,275.75L518.76,275.67L517.94,274.43L518.28,272.53L517.82,271.4L518.82,270.79L520.17,271.33L522.25,271.02L523.29,271.26L526.19,270.86L526.41,270.48L527.97,270.51L528.28,269.07L527.34,267.66L525.21,266.16L524.25,265.12L523.76,262.52L523.8,261.26L523.19,260.41L523.67,259.83L524.03,258.22L522.13,256.6L522.76,256.51L522.57,255.29L523.17,254.65L525.29,255.51L526.55,257.32L527.54,255.92L527.26,254.59L528.32,252.53L529.77,252.75L531.11,251.96L532.55,253.08L533.7,252.16L534.41,253.05L535.87,253.45L536.95,253.26L537.9,254.01L539,254.09L541.28,256.04L541.29,257.25L540.85,259.03L541.77,260.26L541.26,261.08L541.64,262.02L543.37,262.88L543.68,264.69L542.92,265.58L542.4,267.98L541.42,267.68L540.26,268.08L540.38,269.31L539.82,269.6L540.48,270.68L543.59,271.71L545.38,273.79L546.62,274.6L546.6,275.75L547.42,276.61L547.88,277.88L548.75,278.57L549.57,278.16L550.49,278.79L550.94,279.85L550.45,280.38L551.82,281.8L550.96,282.13L551.88,283.63L551.5,285L549.31,286.73L547.8,285.78L545.68,284.9L544.97,284.91L544.26,285.77L543.37,285.97L542.7,285.27L540,284.37L538.93,282.82L536.92,281.57L535.73,282.46L534.06,283.04L532.52,282.86L532.42,284.78L532.01,286.33L532.81,288.9L531.51,288.76L528.36,285.84Z" class="land" id="JP-21" title="Gifu"/>
    <path d="M556.78,302.11L555.48,299.38L555.48,297.71L557.83,296.13L558.38,293.87L557.9,292.63L558.61,291.03L558.91,288.51L558.15,287.05L559.33,286.93L559.41,285.84L560.63,285.1L562.09,283.39L563.68,282.66L563.49,281.82L562.55,281.05L562.71,279.36L561.52,277.48L562.33,276.89L562.19,274.99L562.57,275.25L564.84,278.69L564.97,280.06L565.75,281.3L565.69,282.39L566.91,284.14L567.72,284.5L568.35,283.89L569.4,284.31L571.5,287.45L572.54,288.03L574.02,288.17L574.55,287.45L572.79,284.34L573,283.62L572.1,281.62L572.79,280.57L574.07,282.03L575.19,281.89L576.18,283.02L580.31,282.25L580.89,281.79L582.61,281.75L584.05,283.82L583.85,285.67L584.87,287.44L586.42,288.87L588.27,289.11L587.98,290.25L588.31,291.43L589.17,291.73L589.66,293.28L591.25,294.26L591.86,296.04L591.28,296.98L591.23,299.01L590.39,299.93L590.36,301.68L589.59,303.32L588.5,304.19L586.6,303.14L586.38,302.49L584.66,300.71L584.99,299.51L583.35,296.72L583.68,295.53L582.3,293.74L582.27,292.3L584.72,292.49L584.67,291.65L581.85,289.79L578.94,289.2L576.17,290.15L575.9,291.99L576.64,293.28L575.86,294.1L573.91,295.23L573.63,296.79L574.33,297.98L574.12,299.42L572.92,300.77L572.96,302.39L573.64,304.18L570.55,302.99L568.61,302.46L566.2,302.38L564.29,302.92L560.93,302.19L559.18,302.01Z" class="land" id="JP-22" title="Shizuoka"/>
    <path d="M535.63,292.15L533.77,290.32L532.81,288.9L532.01,286.33L532.42,284.78L532.52,282.86L534.06,283.04L535.73,282.46L536.92,281.57L538.93,282.82L540,284.37L542.7,285.27L543.37,285.97L544.26,285.77L544.97,284.91L545.68,284.9L547.8,285.78L549.31,286.73L551.5,285L551.54,285.97L552.9,287.51L554.5,286.68L555.78,286.6L557.31,287.36L558.15,287.05L558.91,288.51L558.61,291.03L557.9,292.63L558.38,293.87L557.83,296.13L555.48,297.71L555.48,299.38L556.78,302.11L553.23,303.04L549.86,304.5L547.24,304.57L547.35,302.55L548.5,303.29L549.1,303.11L551.48,301.47L551.51,300.53L552.29,300.48L551.99,299.14L551,298.31L548.89,297.94L548.68,299.57L547.47,298.9L545.13,299.2L541.88,296.79L542.63,299.39L544.25,300.48L544.84,301.51L542.61,300.81L541.04,299.57L540.77,297.49L539.11,295.84L538.54,294.12L538.63,292.91L537.97,292.15L537.12,292.56Z" class="land" id="JP-23" title="Aichi"/>
    <path d="M533.76,328.86L532.55,328.77L529.28,326.23L528.47,323.95L528.94,321.91L530.16,321.45L530.6,320.12L532.59,320.43L531.28,316.45L530.53,315.65L530.73,314.04L529.39,312.67L529.39,311.88L527.78,310.05L527.91,308.93L530.28,308.55L530.28,307.44L529.5,306.31L528.86,306.62L527.85,305.43L527.04,305.75L525.1,304.68L524.98,302.18L523.31,300.34L522.23,298.92L523.51,298.27L523.19,297.67L524.71,296.25L526.57,297.03L528.72,295.71L528.52,294.62L528.9,293.33L528.29,291.72L528.35,290.85L527.79,288.5L526.47,287.58L526.27,286.95L528.36,285.84L531.51,288.76L532.81,288.9L533.77,290.32L535.63,292.15L534.13,293.2L534.2,294.39L535.03,295.7L534.76,297.78L534.22,299.16L534.34,301.07L535.64,302.19L535.83,303.75L538.55,304.47L539.19,305.27L540.88,305.83L542.51,306.78L543.89,306.81L545.37,308.39L546.59,308.58L547.03,309.45L546.31,310.62L547.29,312.2L547.36,313.71L546.36,314.02L545.02,313.76L544.64,312.85L543.58,312.52L542.38,311.28L542.29,312.94L541.36,313.81L540,313.06L538.9,313.22L539.66,314.34L539,314.88L537.81,314.88L535.42,315.98L535.26,317.18L536.4,317.83L536.32,318.64L534.91,318.63L535.63,319.98L536.64,320.41L537,321.84L536.28,321.95L535.9,323.29L534.9,323.5L534.01,324.25L533.66,326.48Z" class="land" id="JP-24" title="Mie"/>
    <path d="M526.27,286.95L526.47,287.58L527.79,288.5L528.35,290.85L528.29,291.72L528.9,293.33L528.52,294.62L528.72,295.71L526.57,297.03L524.71,296.25L523.19,297.67L523.51,298.27L522.23,298.92L521.05,297.44L519.81,297.23L517.54,296.1L517.3,294.84L515.56,293.07L514.66,291.69L514.29,288.82L512.96,286.9L512.71,285.22L510,283.09L510.36,281.52L511.71,281.99L512.39,281L512,279.45L512.1,278.45L513.36,279.34L513.94,278.21L515.37,278.06L515.25,276.82L516.68,277.19L516.47,276.32L515.18,274.63L514.7,273.5L517.94,274.43L518.76,275.67L519.55,275.75L520.19,277.61L521.79,277.96L522.47,279.22L523.5,279.97L523.88,281.14L524.9,282.12L524.47,282.64L525.08,284.21L525.38,285.89Z" class="land" id="JP-25" title="Shiga"/>
    <path d="M504.54,291.8L504.65,290.43L503.88,289.45L501.63,289.08L501.23,288.23L498.92,288.25L498.3,287.01L497.17,285.73L495.98,285.7L495.61,286.2L493.26,284.92L491.25,284.21L490.44,281.89L491.08,281.61L492.15,282.21L492.96,281.6L491.71,278.54L491.07,277.92L489.86,278.68L487.04,276.84L486.05,274.49L487.59,274.81L488.27,273.55L489.24,273.62L490.79,272.06L492.69,271.37L494.25,272.16L495.53,273.92L494.96,274.27L495.26,276.67L495.89,277.9L497.16,278.5L498.16,278.51L498.4,279.62L499.89,278.93L498.22,278.28L498.71,277.22L500.89,277.35L500.85,278.39L501.65,278.88L501.79,280.05L503.88,281.46L504.45,282.48L506.53,282.7L508.55,283.39L510,283.09L512.71,285.22L512.96,286.9L514.29,288.82L514.66,291.69L515.56,293.07L517.3,294.84L517.54,296.1L519.81,297.23L521.05,297.44L522.23,298.92L523.31,300.34L523.28,301.22L521.69,300.34L520.54,300.32L520.14,301.23L519.34,301.33L516.88,300.71L515.7,299.28L515.74,298.55L514.01,297.19L513.15,295.95L510.01,293.85L509.88,295.45L507.81,293.59L506.55,292.86L505.11,292.66Z" class="land" id="JP-26" title="Kyoto"/>
    <path d="M510.48,302.9L510.54,301.48L509.69,299.79L508.25,298.34L507.89,297.23L508.04,295.06L505.34,294.35L504.86,293.95L504.54,291.8L505.11,292.66L506.55,292.86L507.81,293.59L509.88,295.45L510.01,293.85L513.15,295.95L514.01,297.19L515.74,298.55L515.7,299.28L515.65,302.04L515.88,304.11L516.81,304.72L516.58,305.78L517.78,307.26L518.71,309.94L518.18,310.37L516.77,310.59L515.76,311.54L513.82,311.37L511.28,312.32L509.95,312.35L508.89,313.28L507.27,313.46L506.35,312.31L508.92,311.3L510.26,309.32L510.94,307.03L511.52,306.34L510.35,304.27Z" class="land" id="JP-27" title="Osaka"/>
    <path d="M523.31,300.34L524.98,302.18L525.1,304.68L527.04,305.75L527.85,305.43L528.86,306.62L529.5,306.31L530.28,307.44L530.28,308.55L527.91,308.93L527.78,310.05L529.39,311.88L529.39,312.67L530.73,314.04L530.53,315.65L531.28,316.45L532.59,320.43L530.6,320.12L530.16,321.45L528.94,321.91L528.47,323.95L526.3,324.35L525.35,323.87L524.17,323.95L523.57,324.67L522.55,323.83L522.53,321.66L521.2,320.81L521.03,320.19L519.26,319.05L519.15,318.4L520.2,316.69L519.98,315.41L520.53,314.84L521.64,315.28L521.26,313.8L520,313.21L518.97,311.18L518.18,310.37L518.71,309.94L517.78,307.26L516.58,305.78L516.81,304.72L515.88,304.11L515.65,302.04L515.7,299.28L516.88,300.71L519.34,301.33L520.14,301.23L520.54,300.32L521.69,300.34L523.28,301.22Z" class="land" id="JP-29" title="Nara"/>
    <path d="M506.35,312.31L507.27,313.46L508.89,313.28L509.95,312.35L511.28,312.32L513.82,311.37L515.76,311.54L516.77,310.59L518.18,310.37L518.97,311.18L520,313.21L521.26,313.8L521.64,315.28L520.53,314.84L519.98,315.41L520.2,316.69L519.15,318.4L519.26,319.05L521.03,320.19L521.2,320.81L522.53,321.66L522.55,323.83L523.57,324.67L524.17,323.95L525.35,323.87L526.3,324.35L528.47,323.95L529.28,326.23L532.55,328.77L533.76,328.86L533.92,330.53L533.39,330.77L533.08,332.09L534.05,332.43L533.41,333.71L530.81,335.6L529.94,335.74L527.4,334.84L524.51,334.39L521.62,332.95L520.8,332.06L520.61,331.12L519.28,330.67L519.94,329.39L517.54,327.62L513.95,326.18L512.51,324.5L511.45,324.05L510.32,324.43L509.7,321.31L511,320.9L511.27,320.15L510.08,319.25L508.66,318.96L509.03,317.22L510.07,317.3L509.76,316L508.8,315.77L507.73,314.33L506.3,313.3Z" class="land" id="JP-30" title="Wakayama"/>
    <path d="M453.29,279.93L455.1,280.27L456.6,278.5L458.49,278.06L460.42,278.73L462.57,278.93L466.34,278.67L466.94,278.24L468.63,278.44L470.66,278.2L473.51,277.35L473.79,276.45L475.22,275.78L476.27,276.38L477.41,277.88L478.88,280.64L479.88,281.04L480.49,282.56L481.41,283.06L482.47,285.27L481.13,286.62L480.34,286.31L479.88,286.04L478.82,287.39L477.57,287.22L476.23,287.9L474.2,285.67L472.67,284.49L471.67,284.69L470.36,284.25L470.12,283.21L468.59,283.71L468.79,284.27L467.69,284.84L467.19,286.07L466.16,285L464.58,284.14L463.11,284.12L460.86,283.39L461.1,286.23L460.12,286.52L460.58,287.67L459.42,288.24L458.24,288.3L459.17,289.69L457.39,290.43L456.7,290.34L456.67,291.45L455.95,290.86L453.55,290.93L453.02,289.12L453.72,288.3L452.67,286.52L455.14,285.4L454.06,283.5L454.25,282.77Z" class="land" id="JP-31" title="Tottori"/>
    <path d="M374.17,221.73L375.27,223.23L374.82,224.22L373.09,223.61L372.25,222.53ZM441.84,262.52L441.29,263.32L440.04,262.09L440.91,261.55ZM453.29,279.93L454.25,282.77L454.06,283.5L455.14,285.4L452.67,286.52L453.72,288.3L453.02,289.12L453.55,290.93L452.78,290.66L451.34,291.16L449.84,290.23L449.22,290.95L447.15,290.22L446.59,291.36L445.93,294.12L444.67,294.41L444.31,295.87L445.7,296.38L446.12,297.41L444.15,297.57L442.95,298.82L441,298.66L439.93,299.15L436.32,298.48L436.13,300.23L435.42,300.5L434.85,301.56L435.64,301.96L435.31,303.17L435.88,305.26L434.86,306.26L434.81,307.02L435.65,307.76L434.92,308.29L434.67,309.5L435.57,310.55L435,312.43L433.91,311.69L433.15,312.51L431.98,312.62L430.58,311.61L429.91,310.34L429.97,308.89L427.82,308.93L426.37,306.99L426.84,306.24L426.37,304.12L425.64,303.55L424.79,302.09L426.13,302.12L427.66,301.59L428.5,299.81L429.43,298.85L430.92,296.1L431.08,294.92L432.65,293.29L433.28,292.13L434.78,291.39L434.91,290.13L435.73,289.38L435.78,287.81L437.84,285.71L439.22,285.08L439.74,283.58L439.13,281.7L437.78,280.81L441.26,279.04L443.47,278.45L444.26,277.74L445.66,277.88L445.68,276.76L446.45,276.02L447.99,277.25L449.47,276.68L451.22,276.77L450.62,277.99L451.65,279.14ZM442.73,259.64L441.46,258.99L440.51,256.85L441.04,255.71L442.13,255.36L443.2,255.74L445.38,257.42L445.75,259.14L445.52,260.15L443.23,260.29ZM439.88,260.92L439.43,261.94L440.09,263.25L438.25,262.57L438.71,261.63Z" class="land" id="JP-32" title="Shimane"/>
    <path d="M486.7,308.42L485.34,308.14L484.4,307.52L483.28,308.11L483.05,306.81L486.15,305.22L487.25,306.17L487.7,307.66ZM467.22,307.68L466.28,305.64L464.11,303.69L463.48,302.06L462.13,299.83L461.94,298.51L459.17,296.16L458.43,294.29L458.4,292.88L456.67,291.45L456.7,290.34L457.39,290.43L459.17,289.69L458.24,288.3L459.42,288.24L460.58,287.67L460.12,286.52L461.1,286.23L460.86,283.39L463.11,284.12L464.58,284.14L466.16,285L467.19,286.07L467.69,284.84L468.79,284.27L468.59,283.71L470.12,283.21L470.36,284.25L471.67,284.69L472.67,284.49L474.2,285.67L476.23,287.9L477.57,287.22L478.82,287.39L479.88,286.04L480.34,286.31L480.38,287.52L481.53,288.92L480.56,289.14L480.8,290.43L480.24,290.71L480.6,291.8L480.3,294.57L481.49,295.57L481.29,297.1L483.41,298.79L484.67,300.4L483.11,300.45L482,302.78L481.99,303.83L481.14,304.52L479.69,304.59L478.2,306.37L478.13,308.42L475.93,307.75L475.48,308.15L473.2,307.74L472.12,306.81L471.33,306.89L470.62,307.78L468.4,308.68Z" class="land" id="JP-33" title="Okayama"/>
    <path d="M447.01,324.69L445.22,324.69L444.02,323.09L444.96,321.97L447.04,323.31L448.64,323.94L449.24,324.93ZM424.79,302.09L425.64,303.55L426.37,304.12L426.84,306.24L426.37,306.99L427.82,308.93L429.97,308.89L429.91,310.34L430.58,311.61L431.98,312.62L433.15,312.51L433.91,311.69L435,312.43L435.57,310.55L434.67,309.5L434.92,308.29L435.65,307.76L437.38,311.12L438.8,312.04L439,312.79L440.24,314.52L442.17,314.66L443.21,316.41L442.5,317.49L443.66,319.66L444.12,321L443.89,322.14L442.69,322.28L443.43,324.21L441.28,323.62L440.93,323.82L435.5,320.54L435.44,321.9L434.29,321.67L435.06,320.27L432.65,319.33L429.38,320.58L428.8,321.13L426.98,319.9L426.97,320.95L424.99,320.44L424.95,322.01L423.42,323.23L420.56,322.3L420.29,321.37L417.98,320.1L416.76,319.95L416.5,321.35L415.59,322.51L414.84,321.73L414.04,319.74L412.13,317.94L412.8,317.06L412.94,315.75L412.13,314.32L410.63,312.74L410.46,311.12L411.89,311.06L412.76,310.06L412.14,309.39L414.29,309.3L416.05,310.61L417.41,310.64L419.36,310.3L420.88,309.36L421.79,307.38L421.32,305.94L422.19,306.1L422.88,304.77L423.22,302.33L424.47,302.67Z" class="land" id="JP-35" title="Yamaguchi"/>
    <path d="M496.73,333.75L494.18,333.48L492.74,332.06L492.46,330.18L491.09,329.69L489.78,329.84L488.75,327.46L487.8,326.5L485.78,325.89L485.22,326.98L484.16,326.59L483,325.52L480.98,325.73L479.19,325.11L478.51,324.47L478.75,323.39L477.73,321.57L477.76,320.77L479.07,318.9L482.16,317.89L483.6,319.04L484.64,318.71L485.09,317.97L486.46,317.8L486.41,316.9L487,316.21L488.89,316L492.61,316.64L492.73,315.24L495.62,314.31L496.06,315.41L497.15,315.99L497.69,319.5L498.29,320.8L501.32,322.45L501.84,323.7L500.78,324.82L503.8,325.75L501.84,326.96L500.67,327.96L500.7,328.57L498.61,330.49L497.77,330.6L497.47,331.37L497.71,332.85L496.66,332.8Z" class="land" id="JP-36" title="Tokushima"/>
    <path d="M465.77,351.32L466.09,350.74L465.52,349.15L464.37,347.64L464.19,346.54L462.92,345.51L462.69,344.34L464.2,345.44L465.38,343.5L465.2,341.51L467.13,340.46L466.83,339.52L464.69,337.82L464.09,336.69L464.2,335.82L466.83,336.13L468.07,335.73L468.51,334.03L467.78,333.07L467.66,330.87L468.32,330.75L468.72,328.69L468.81,326.93L470.25,326.96L470.31,325.89L472.99,326.02L475.35,325.94L475.93,324.51L478.51,324.47L479.19,325.11L480.98,325.73L483,325.52L484.16,326.59L485.22,326.98L485.78,325.89L487.8,326.5L488.75,327.46L489.78,329.84L491.09,329.69L492.46,330.18L492.74,332.06L494.18,333.48L496.73,333.75L496.19,338.02L497.08,341.87L492.87,338.77L491.9,337.54L489.96,336.72L488.88,335.44L487.69,335.06L484.87,334.72L484.1,334.07L482.68,334.14L480.68,334.66L480.61,335.23L478.44,336.63L478.76,337.4L476.96,337.85L474.77,338.83L476.04,341.92L476.21,342.81L475.02,344.91L474.95,346.4L474.41,347.77L472.83,348.58L473.02,350.49L474.16,352.48L473.05,353.06L473.52,354.38L474.99,355.13L475.59,355.84L475.69,356.98L473.07,355.17L471.72,355.03L470.78,356.28L468.17,354.81L467.73,355.3L466.24,354.86L467.15,351.7Z" class="land" id="JP-39" title="Kochi"/>
    <path d="M390.4,329.18L389.68,329.14L388.74,327.83L387.96,327.55L388.37,324.89L390.18,325.49L390.25,326.5L391.55,327.7L391.6,328.34L390.36,328.39ZM400.1,336L403.58,336.07L405.41,335.76L407.86,337.03L408.82,337.23L409.86,338.09L410.59,336.96L411.91,336.91L412.88,339.6L410.54,342.3L410.32,343.54L410.66,345.02L409.13,345.01L407.47,344.49L406.35,345.98L406.65,347.1L407.43,347.71L409.56,350.46L409.18,350.41L405.64,349.6L403.11,347.61L401.45,346.69L401.84,345.63L401.05,344.59L399.9,344.71L398.04,344.02L397.46,342.51L395.64,340.86L395.89,339.67L396.9,339.74L397.21,338.66L396.88,337.86L394.45,336.47L394.8,334.58L396.01,333.71L398.11,334.83L397.7,335.71L398.64,336.36L400.05,336.59Z" class="land" id="JP-41" title="Saga"/>
    <path d="M380.17,356.42L380.84,357.85L382.34,359.24L380.7,359.37L379.5,359.14L379.08,360.19L377.39,360.66L375.88,360.05L377.16,358.93L376.37,358.12L375.35,355.83L375.68,355.18L377.02,356.17L379.06,355.37ZM395.89,339.67L395.64,340.86L397.46,342.51L398.04,344.02L399.9,344.71L401.05,344.59L401.84,345.63L401.45,346.69L403.11,347.61L405.64,349.6L409.18,350.41L409.39,351.13L408.12,352.4L409.54,353.56L411.74,352.55L413.08,353L414.85,355.06L415.33,356.38L414.96,357.34L415.34,358.32L413.73,359.04L413.33,360.06L411.79,359.81L410.65,359.22L410.37,358.18L411.52,356.82L410.29,354.94L408.11,354.9L407.16,355.76L405.35,355.65L405.56,356.84L405.11,358.64L403.05,360.29L403.13,357.36L402.73,356.33L401.7,355.76L400.76,354.23L400.04,354.6L398.62,353.56L397.16,351.44L396.07,350.45L395.53,346.99L396.27,346.58L398.45,348.54L400.19,349.64L400.62,351.25L400.58,352.89L402.3,353.88L402.93,352.52L405.27,353.75L404.92,352.85L403.26,351.28L402.66,348.73L400.19,347.26L398.43,347.4L397.3,346.94L396.24,344.73L394.02,344.45L393.32,343.64L391.62,343.06L391.38,341.99L391.87,341.48L390.95,339.79L390.92,338.43L391.8,338.98L392.73,338.89L394,339.38L395.52,338.82ZM374.95,311.84L374.51,311.33L372.51,311.16L372.92,310.23L372.18,307.88L372.53,305.59L371.38,305.03L371.31,302.82L372.95,302.74L372.97,301.62L373.63,301.2L375.14,302.25L375.16,303.98L375.8,305.43L375.47,306.85L374.52,308.3L375.62,309.45L375.83,310.78L376.61,311.63L376.73,312.73L376.24,313.47L375.47,313.31L375.96,317.41L374.86,318.7L373.6,318.18L372.4,313.34ZM381.42,340.84L381.35,342.27L380.02,341.53ZM379.53,353.53L380.73,354.16L380.82,355.79L379.73,355.21L379.09,353.67ZM389.29,338.49L390.57,339.11L389.62,343.14L388.44,344.27L387.6,342.85L388.44,342.23L387.65,341.52L388,340.02ZM383.08,347.78L383.39,349.64L384.9,348.9L385.63,349.96L384.27,351.53L384.91,353.07L384.09,353L382.55,350.69L381.87,348.37ZM382.78,353.07L381.84,352.61L381.49,351.44L382.98,352.03ZM381.82,354.76L379.87,352.6L381.3,352.71L381.87,353.3Z" class="land" id="JP-42" title="Nagasaki"/>
    <path d="M418.88,361.63L418.38,361.96L417.25,360.72L417.99,359.65L418.76,360.71ZM429.88,374.48L429.25,374.36L426.92,372.94L424.97,373.5L423.99,373.48L423.53,374.16L422.24,373.97L420.87,372.9L420.62,371.6L421.35,370.23L421.66,367.04L422.86,365.01L422.32,363.86L422.43,363.05L421.64,362.03L421.99,360.81L422.81,359.61L418.5,359.89L418.34,359.43L420.71,357.23L420.13,354.97L418.63,353.57L417.66,353.36L417.18,352.46L415.18,351.65L414.04,349.55L413.17,348.96L414.81,349.16L415.73,348.78L415,347.77L416.23,345.98L418.04,346.19L417.89,345.07L419.31,344.9L420.34,345.62L422.35,346.24L423.56,346.8L424.6,347.74L426.54,348.58L426.67,346.8L425.17,345.35L424.99,344.46L425.92,343.79L427.67,344.09L429.36,345.4L430.1,346.8L431.44,347.74L432.83,349.68L434.08,352.41L436.27,353.94L434.88,354.13L434.66,355.33L435.02,356.41L434.18,357.19L434.35,358.31L433.48,358.96L433.8,360.66L432.49,360.83L432.39,363.57L433.18,364.94L434.52,365.87L435.23,367.26L436.41,368.08L436.19,370.55L437.44,371.7L438.03,372.81L437.06,372.94L435.6,372.5L435.3,373.94L433.75,373.67L432.89,374.54ZM415.72,371.25L417.39,372.89L416.97,373.24L416.96,374.74L415.42,373.74L414.64,372.4L414.44,371.34ZM418.66,362.64L419.18,362.55L419.52,365.12L419.03,366.5L418.43,366.6L416.81,365.97L414.62,365.9L415.63,366.92L415.56,368.12L413.98,369.76L414.09,370.8L413.32,371.33L413.16,373.04L411.93,371.7L411.85,370.66L410.92,370.4L411.06,368.68L409.96,367.1L409.98,365.2L410.3,364.19L410.03,362.81L412.32,361.76L413.33,362.19L413.56,363.3L414.3,364.54L415.83,363.57L416.23,362.7L417.11,362.37Z" class="land" id="JP-43" title="Kumamoto"/>
    <path d="M446.19,392.49L446.46,390.8L445.91,389.03L445.17,387.9L443.86,387.83L442.32,386.9L441.99,387.61L440.93,386.42L440.07,384.51L439.02,383.53L437.71,383.37L436.41,382.81L435.86,380.42L434.41,379.08L433.36,378.9L431.9,376.93L429.75,375.7L429.88,374.48L432.89,374.54L433.75,373.67L435.3,373.94L435.6,372.5L437.06,372.94L438.03,372.81L437.44,371.7L436.19,370.55L436.41,368.08L435.23,367.26L434.52,365.87L433.18,364.94L432.39,363.57L432.49,360.83L433.8,360.66L433.48,358.96L434.35,358.31L434.18,357.19L435.02,356.41L434.66,355.33L434.88,354.13L436.27,353.94L437.08,354.63L438.47,354.49L439.58,353.81L440.92,354.84L441.26,355.76L442.44,356.12L442.85,355.59L445.46,355.62L445.62,354.03L446.49,353.85L448.31,354.36L449.04,356.48L449.71,356.49L449.66,357.12L448.28,358.3L448.32,360.31L447.3,360.96L447.21,362.01L448.83,363.41L447.8,364.94L447.77,367.81L447.56,369.16L448.15,373.82L448.49,380.1L448.93,381.85L450.4,383.28L450.32,384.74L451.35,387.64L450.63,388.2L450.47,390.75L451.09,391.73L450.6,392.14L451.23,393.31L450.63,394.2L448.96,394.65L447.52,392.81Z" class="land" id="JP-45" title="Miyazaki"/>
    <path d="M422.35,346.24L422.64,345.95L422.42,343.99L421.3,343.41L420.53,341.99L420.89,340.91L420.14,339.78L420.47,338.6L420.09,336.62L421.34,334.97L422.31,334.7L425.17,335.05L425.59,333.71L424.89,332.32L425.07,331.8L427.54,332.89L429.46,332.86L430.47,332.5L431.23,331.43L431.37,330.28L433.09,329.68L435.31,330.64L437.51,332.64L438.31,333.93L439.01,336.07L438.79,337.7L437.02,337.22L437.77,338.61L434.66,338.99L434.85,339.84L435.92,341.64L437.88,342.24L439.7,341.27L441.68,342.43L442.87,342.34L444.81,341.62L444.52,343.42L444.13,344.05L444.11,345.56L445.06,345.94L445.89,347.01L447.43,347.28L447.39,349.36L448.9,350.48L449.62,350.16L450.74,353.15L451.81,353.99L450.6,355.21L449.32,354.65L449.71,356.49L449.04,356.48L448.31,354.36L446.49,353.85L445.62,354.03L445.46,355.62L442.85,355.59L442.44,356.12L441.26,355.76L440.92,354.84L439.58,353.81L438.47,354.49L437.08,354.63L436.27,353.94L434.08,352.41L432.83,349.68L431.44,347.74L430.1,346.8L429.36,345.4L427.67,344.09L425.92,343.79L424.99,344.46L425.17,345.35L426.67,346.8L426.54,348.58L424.6,347.74L423.56,346.8Z" class="land" id="JP-44" title="Oita"/>
    <path d="M449.63,417.19L448.56,414.65L449.26,411.94L448.95,411.39L449.65,409.82L450.83,411.59L451.54,413.87L451.32,415.23L451.81,416.19L451.71,417.87L451.13,418.07L451.02,420.61L452.11,422.25L451.96,422.97L451,422.96L450.11,423.8L449.52,423.08L448.96,420.34ZM420.87,372.9L422.24,373.97L423.53,374.16L423.99,373.48L424.97,373.5L426.92,372.94L429.25,374.36L429.88,374.48L429.75,375.7L431.9,376.93L433.36,378.9L434.41,379.08L435.86,380.42L436.41,382.81L437.71,383.37L439.02,383.53L440.07,384.51L440.93,386.42L441.99,387.61L442.32,386.9L443.86,387.83L445.17,387.9L445.91,389.03L446.46,390.8L446.19,392.49L444.65,391.98L443.49,393.72L443.72,395.25L446.04,396L445.71,397.17L446.13,398.98L444.96,399.02L445.07,400.06L444.64,401.49L442.99,402.69L441.66,402.85L439.55,404.73L438.16,403.36L439.68,401.66L439.73,400.29L439.17,399.7L439.57,398.31L439.08,395.95L437.11,393.42L435.41,392.35L434.72,389.98L433.17,390.02L431.81,389.01L432.21,387.91L433.35,387.66L434.48,388.41L434.7,389.43L435.97,389.54L436.42,387.03L435.38,385.69L431.93,384.74L431.24,385.55L431.48,387L430.97,388.63L431.37,389.25L431.11,392.25L431.98,393.86L433.78,396.39L435.45,397.59L436.58,397.87L436.72,400.03L435.83,400.94L434.9,400.34L433.74,400.34L433.46,399.34L431.98,398.3L429.51,398.31L428.36,397.86L426.35,398.36L424.99,395.29L424.31,395.08L422.87,393.78L423.73,393.56L425.15,394.18L426.17,392.63L426.2,389.88L424.95,387.01L423.63,385.82L421.08,384.13L419.99,383.12L420.16,379.83L419.49,378.51L418.04,376.81L418.24,375.5L417.15,374.79L417.96,373.62L419.56,374.19L420.77,374.07ZM411.88,381.82L411.47,380.56L412.78,381.25L413.99,381.48L414.22,382.21L413.28,382.57ZM434.12,420.29L435.13,420.9L434.1,421.63L432.83,420.64L432.82,419.85ZM411.27,387.31L409.97,387.53L410.06,385.04L411.24,384.63L411.61,385.32L411.03,386.54ZM440.38,420.5L444.13,422.14L445.17,422.92L445.45,425.1L444.45,426.73L443.13,427.1L441.04,426.76L439.17,424.42L438.24,422.42L439.31,422.32Z" class="land" id="JP-46" title="Kagoshima"/>
    <path d="M412.53,532.94L413.22,531.9L413.89,531.82L415.4,530.75L415.48,529.51L413.27,528.9L412.18,526.72L414,526.08L415.02,526.47L415.71,528.24L416.76,528.1L417.66,527.33L419.61,523.53L419.68,521.34L421.02,522.25L422.23,524.87L421.09,528.22L419.03,528.26L419.62,530.03L418.51,530.95L417.1,531.6L415.89,533.67L413.85,533.1L413.15,534.09L414.65,535.25L414.83,536.53L414.09,536.71L413.75,537.55L413.53,540.3L415.25,541.28L414.57,542.19L413.67,542.63L413.35,543.44L411.81,543.6L410.45,540.37L411.53,538.26L412.5,537.63L410.68,534.6L411.67,533.42ZM337.49,592.08L337.52,593.31L336.97,593.51L336.42,595L335.64,594.52L331.95,594.23L331.31,593.52L332.01,592.33L333.2,592.7L332.62,591.08L333.11,590.37L335.64,590.82ZM365.44,580.9L365.23,579.73L366.19,578.5L367.13,579.75L369.66,580.77L370.36,581.64L367.09,582.17ZM428.14,493.76L428.41,494.86L430.49,496.41L430.13,499.01L428.98,499.26L427.15,497.52L427.41,496.38L426.18,494.38L426.17,492.71L427.88,492.75ZM342.23,589.53L343.27,588.9L344.11,586.38L344.73,586.86L344.63,588.45L344.07,589.16L344.62,590.59L344.65,592.42L342.76,592.9L341.94,591.32ZM438.24,479.3L437.5,481.11L435.73,481.38L435.83,482.8L436.57,483.76L434.86,485.45L434.58,486.04L433.21,485.54L432.19,483.81L430.2,483.32L428.59,482.6L430.68,481.8L430.05,481.22L430.97,480.51L431.85,480.46L432.36,479.34L433.11,479.75L433.48,478.86L434.76,479.01L434.68,478.21L435.95,478.46L436.25,476.66L437.95,476.27L438.85,478.03L439.31,476.77L438.27,475.6L439.08,474.81L439.56,475.96L440.25,476.38L440.56,477.64L439.65,478.56L438.76,478.26ZM448.48,479.37L447.8,481.74L447.2,482.02L446.14,480.95L446.94,480.53L447.9,479.09ZM389.21,536.8L387.49,535.52L389.08,535.03L390.35,536.22ZM431.39,485.26L432.45,485L433.21,486.2L434.97,486.82L434.86,487.56L431.98,486.93ZM424.26,507.61L422.91,508.6L421.71,507.46L421.7,506.45L423.22,506.66L424.96,506.2ZM362.34,579.18L362.62,577.85L363.83,578.36L364.34,579.28L363,579.63Z" class="land" id="JP-47" title="Okinawa"/>
  </g>
</svg>