<?xml version="1.0" encoding="UTF-8"?>
<svg xmlns="http://www.w3.org/2000/svg" width="811.61" height="600" viewBox="74.19 -2.5 811.61 600" style="background-color:#5f80ce">
  <!-- Created using SVG Map Generator: dojo.amcharts.com/svg-map-generator -->
  <style>
    .land { fill: #ffffff; stroke: #000000; stroke-width: 0.5; }
  </style>
  <g id="polygons">
    <path d="M516.79,267.46L516.09,267.97L511.56,273.88L507.81,275.02L505.77,278.95L501.92,280.57L500.38,282.36L499.32,285.46L500.15,286.89L498.15,290.44L496.58,292.29L491.54,293.9L489.35,295.96L485.09,301.2L478.9,303.98L476.8,306.97L473.45,307.67L470.37,306.78L469.02,308.81L469.45,310.37L468.55,311.83L468.96,315.48L466.13,321.84L466.87,324.87L470.85,327.94L471.77,329.55L475.27,330.66L476.35,334.6L477.57,335.76L482.08,334.72L488.01,329.12L490.57,328.21L492.14,331.34L491.56,333.35L486.86,341.08L486.22,342.99L486.93,346.92L485.13,350.94L482.13,355.78L480.1,356.16L477.75,354.77L475.34,351.9L473.26,350.51L469.57,349.41L468.66,345.73L468.68,343.96L465.66,341.95L463.26,339.12L462.72,337.42L459.64,340.29L455.38,342.69L451.99,344.03L449.46,349.12L445.54,353.58L443.53,357.07L443.34,358.56L445.41,361.31L444.82,364.01L445.13,366.27L447.79,368.45L446.66,371.74L445.32,373.35L442.5,375.06L437.92,378.63L436.37,378.01L433.94,379.28L433.13,381.76L431.2,382.85L429.42,382.33L425.37,383.83L422.53,381.85L419.08,381.49L417.98,378.41L415.37,377.65L415.57,376.66L421.11,374.25L422,372.2L421.04,371.31L418.91,371.25L418.53,368.22L420.6,367.66L422.8,365.36L423.92,360.15L427.6,357.63L429.93,355.51L436.31,352.38L437.58,350.31L439.75,345.3L439.36,344.14L437.03,343.97L437.51,340.56L435.16,340.35L432.94,341.24L432.29,342.85L433.3,344.76L430.24,347.07L427.74,349.71L425.72,348.84L424.79,349.8L422.66,349.79L422.39,348.43L427.94,340.92L428.05,337.16L425.38,334.94L421.46,335.75L420.63,336.45L419.01,345.01L417.66,346.58L416.58,345.42L416.24,343.01L416.98,340L418.79,336.38L421.85,332.6L423.24,331.61L423.15,329.84L420.83,329.25L418.88,329.74L416.15,331.59L415.85,332.55L416.86,337.22L416.7,338.96L415.31,340.39L412.88,341.19L414.79,337.25L414.29,336.79L410.62,338.22L409.95,341.19L408.12,341.49L406.66,342.96L405.72,341.27L406.13,337.9L408.12,334.2L410.19,331.89L413.43,330.64L414.94,325.68L415.34,323.15L415.14,319.4L415.53,317.85L418.44,314.1L421.24,307.13L421.78,304.85L425.02,301.37L428.68,298.45L428.74,293.31L429.52,291.87L430.33,287.57L430.19,283.39L432.99,282.52L435.99,279.96L438.95,276.56L442.02,274.37L444.44,271.34L449.27,271.45L451.54,272.29L454.19,271.34L459,273.33L460.05,272.24L461.83,272.52L468.6,271.83L469.75,269.45L469.64,264.66L468.43,264.12L470.54,258.27L468.41,256.31L467.5,254.27L467.68,252L468.12,250.06L475.09,248.14L485.19,248.87L487.53,250.91L490.02,252.07L491.74,254.04L493.32,257.72L496.22,257.6L495.89,261.46L499.09,261.87L500.31,260.83L502.92,260.21L506.06,260.66L507.21,261.64L508.39,266.13L509.56,267.7L511.65,268.66L514.59,266.91Z" class="land" id="MX-ZAC" title="Zacatecas"/>
    <path d="M863.44,367.9L862.8,374.39L861.38,376.39L860.28,380.26L861.15,384.19L860.86,385.38L857.1,392.23L856.52,394.18L855.05,395.88L848.09,400.86L845.63,402.2L842.22,402.61L841.14,401.38L839.75,402.08L837.6,405.47L834.61,406.67L833.32,409.59L829.12,411.82L826.29,412.63L821.8,415.88L820.02,416.32L818.12,418.19L814.05,418.74L811.19,420.03L809.4,421.76L804.77,422.56L804.18,425.44L802.8,427.92L802.14,423.1L799.29,418.68L798.44,415.6L794.57,413.01L793.2,407.51L791.4,406.07L791.25,403.67L790.03,401.16L787.85,403.42L787,402.2L785.25,402.41L783.82,399.69L780.11,399.29L781.65,390.32L780.82,389.99L783.13,384.76L784.55,383.07L791.38,378.73L794.25,378.03L799.29,375.52L803.94,374.38L811.59,372.97L819.69,372.09L827.15,370.79L833.05,368.45L833.92,366.75L840.19,365.31L842.41,365.77L845.23,365.18L847.99,363.38L850.2,363.95L851.71,365.28L855.61,365.58L857.01,367.27L861.36,368.04Z" class="land" id="MX-YUC" title="Yucatán"/>
    <path d="M585.65,342.93L585.18,349.47L586.03,355L585.2,356.52L585.59,358.17L585.37,362.15L587.3,368.62L589.03,368.22L588.95,372.86L589.87,373.84L590.45,378.98L592.61,387.95L593.23,389.38L593.7,394.79L594.29,396.47L598.07,401.54L598.62,403.04L603.87,410.91L606.83,416.29L607.27,418L609.59,421.57L610.23,425.63L610.15,430.79L611.43,433.43L610.89,435.65L611.13,438.92L614.04,441.13L615.91,444.24L615.5,446.17L616.9,447.34L618.82,447.42L619.1,452.74L620.66,454.63L620.68,457.54L623.4,457.58L624.32,456.78L628.5,458.47L638.98,458.77L643.58,463.69L648.27,464.28L650.13,469.5L652.4,472.38L652.6,475.36L654.12,476.54L656.23,476.98L659.59,476.46L667.94,474.22L666.29,475.67L665.93,480.68L666.3,482.51L665.76,486.28L668.24,487.97L669.49,490.51L673.76,492.5L674.88,496.94L674.28,499.75L674.62,502.91L676.35,503.46L671.75,507.09L669.45,508.16L668.22,509.58L648.58,508.23L636.84,507.39L637.43,505.67L636.5,502.94L634.42,501.19L632.74,498.81L630.67,494.71L631.12,493.29L633.2,491.61L631.37,490.48L629.85,491.84L625.63,492.99L621.94,495.62L618.74,495.82L617.23,496.65L615.16,495.92L613.51,490.38L613.65,488.01L614.57,487.16L617.67,480.99L617.44,477L616.73,475.7L613.26,475.34L611.17,474.63L608.91,475.67L607.44,474L606.65,471.65L605.25,470.64L603.74,471.11L601.31,468.05L601.13,464.64L602,463.06L599.9,461.18L599.27,463.93L597.07,467.84L595.42,465.14L592.72,464.12L589.27,466.66L587.6,465.32L587.07,461.47L583.06,460.08L582.06,457.79L582.61,454.08L585.12,451.08L585.47,449.69L586.24,441.68L592.14,441.81L592.15,438.62L589.16,437.04L585.31,436.03L583.62,434.28L584.37,433.24L583.55,428.88L584.63,427.71L587.68,422.18L587.89,419.97L590.56,414.68L593.53,410.37L586.24,407.31L582.2,411.8L580.81,412.01L580.22,409.81L577.28,409.4L577.25,406.48L577.99,401.54L579.43,400.61L581.02,401.74L583,399.33L582.86,397.32L579.93,394.79L579.73,391.98L580.51,388.73L576.98,388.65L575.05,392.08L573.84,392.99L572.54,396.14L570.15,395.41L567.32,398.27L565.42,399.17L562.89,401.92L559.92,403.34L557.55,405.52L556.03,401L557.63,396.84L558.74,392.34L560.09,390.62L563.17,387.97L564.87,389.67L566.52,389.39L566.53,387.32L567.68,384.6L570.13,381.98L568.16,377.4L566.06,376.64L564.93,377.73L562.25,376.84L560.6,374.74L561.33,372.48L560.42,370.36L560.98,366.27L559.56,366L559.18,364.16L559.69,360.91L562.32,360.13L564.73,357.6L562.84,355.48L562.97,352.27L564.81,352.36L565.74,351.21L565.95,348.1L567.28,347.22L570.06,347.16L569.52,342.83L568.18,341.44L564.39,340.27L561.8,340.32L561.16,338.88L563.33,337.65L567.95,337.34L570.31,338.83L572.58,338.29L573.1,336.6L575.95,336.26L576.46,337.84L579.09,339.77L580.54,339.97L583.16,344.63ZM588.12,356.49L589.21,358.72L591.74,362.07L594.16,364.53L594.21,366.93L590.92,372.85L589.99,372.28L592.65,368.07L592.78,366.45L591.2,364.42L590.2,361.97L587.76,358.15Z" class="land" id="MX-VER" title="Veracruz"/>
    <path d="M548.64,433.92L547.29,433.47L546.58,431.22L552.44,429.1L555.86,429.04L558.89,425.72L561.42,426.34L564.34,426.51L566.4,424.25L571.51,430.2L571.78,432.21L573.56,431.59L575.24,433.6L575.36,435.06L576.98,436.05L575.45,438.15L571.53,438.39L569.53,441.28L567.15,442.38L565.09,441.2L561.19,444.53L560.21,444.7L556.15,441.92L554.77,438.59L550.14,433.58Z" class="land" id="MX-TLA" title="Tlaxcala"/>
    <path d="M585.65,342.93L583.16,344.63L580.54,339.97L579.09,339.77L576.46,337.84L575.95,336.26L573.1,336.6L572.58,338.29L570.31,338.83L567.95,337.34L563.33,337.65L561.16,338.88L557.7,339.21L555.89,337.77L554.94,338.74L550.27,338.36L548.26,338.62L546.52,335.17L546.08,332.1L544.16,329.36L542.43,328.68L541.23,326.72L539.05,329.17L536.8,328.29L533.28,327.97L528.97,326.31L527.99,325.19L528.36,320.74L529.56,316.35L528.35,314.01L528.66,311.53L527.92,310.24L528.28,307.68L529.31,306.86L532.61,307.32L533.2,303.05L534.07,300.6L536.1,298.46L537.48,295.08L540.29,293.59L542.92,294.41L545.88,293.07L547.03,291.13L549.38,291.66L549.1,288.85L547.79,287.91L547.11,283.55L545.74,280.15L548.07,274.01L547.85,270.18L545.29,269.55L546.55,267.03L549.05,265.42L552.49,263.9L554.81,261.16L556.32,261.48L557.93,259.57L561.76,258.88L562.67,256.97L564.85,256.04L565.67,254.04L564.78,252L568.84,247.63L569.75,249.08L572.76,249.34L575.43,245.56L580.41,244.55L584.47,241.4L585.98,240.66L589.12,236.54L586.73,235.48L586.14,231.69L587.59,228.31L587.32,226.51L588.48,222.55L587.45,219.09L582.48,219.72L580.1,221.27L578.3,220.89L577.04,217.43L573.59,216.89L573,211.96L571.27,212.73L569.16,209.78L567.83,206.85L567.53,201.98L565.56,201.71L565.13,199.48L562.8,198.48L564.73,193.18L561.72,190.23L563.23,187.43L565.38,185.8L565.76,182.07L564.81,180.74L565.8,176.24L564.65,175.23L566.29,172.38L564.05,172.57L561.66,171.79L563.1,168.82L566.32,167.88L568.97,165.48L572.21,166.38L573.91,168.94L573.05,170.95L574.19,171.57L572.21,176.51L573.22,178.65L573.38,181.56L571.81,186.66L573.18,188.27L574.99,192.02L576.28,199.64L575.78,202.42L577.44,204.45L576.6,205.94L580.11,207.04L580.5,207.91L583.62,208.29L586.04,209.47L587.18,211.86L589.8,211.73L595.37,215.16L597.69,217.78L600.14,218.47L602.15,217.87L605.03,218.38L607.39,218.03L610.43,219.26L611.94,219.02L614.01,220.28L616.07,223.79L618.3,225.34L620.3,224.47L621.21,222.35L625,221.35L626.81,221.62L626.4,223.79L624.3,229.93L623.25,231.99L617.07,240.91L616.35,239.72L613.48,238.25L612.04,240.77L611.83,243.38L609.86,242.81L609.87,240.78L607.93,241.02L605.88,245.3L607.24,247.15L603.72,253.46L605.12,254.85L602.91,258.52L603.07,261.4L602.14,263.43L602.72,264.55L600.51,267.3L597.77,268.49L598,273.03L600.17,271.12L599.68,274.97L597.76,281.1L595.61,291.98L595.68,296.23L593.27,305.08L591.03,318.15L590.01,322.5L588.51,325.62L586.81,327.45L584.83,331.45L585.74,332.33L584.52,336.94L585.23,339.15Z" class="land" id="MX-TAM" title="Tamaulipas"/>
    <path d="M713.78,460.64L714.39,465.27L718.02,469.04L719.16,468.57L720.15,470.34L719.57,472.26L721.85,478.72L725.29,481.62L726.02,483.41L729.04,484.04L731.3,485.44L734.72,484.5L735.66,479.7L738.76,479.54L742.67,480.53L744.23,482.48L751.52,485.87L751.22,487.92L748.65,506.07L736.92,506.28L738.57,504.65L737.64,502.4L734.35,500.05L731.99,499.85L731.67,498.7L732.82,496.08L731.95,491.94L729.32,490.37L729.6,487.86L728.65,486.15L725.98,486.28L723.37,485.25L722.28,487.56L718.67,486.94L717.55,487.9L717.15,491.08L714.53,491.88L707.82,497.4L705.39,498.95L700.84,502.73L699.24,502.43L698.09,498.7L694.85,497.95L695.49,495.62L693.3,491.72L695.49,488.35L695.71,486.06L693.05,486.34L691.52,484.36L688.78,482.73L686.19,483.83L685.2,487.49L684.85,490.44L683.31,494.14L680.01,497.47L679.67,499.49L676.35,503.46L674.62,502.91L674.28,499.75L674.88,496.94L673.76,492.5L669.49,490.51L668.24,487.97L665.76,486.28L666.3,482.51L665.93,480.68L666.29,475.67L667.94,474.22L673.14,472.34L673.08,473.89L676.1,473.31L676.67,471.58L681.18,471.24L682.03,468.96L687.04,467.74L693.03,467.45L693.03,469.75L695.64,469.6L696.57,467.75L701.19,467.37L704.8,465.33L707.14,462.33Z" class="land" id="MX-TAB" title="Tabasco"/>
    <path d="M242.27,114.18L241.65,117.29L242.74,121.19L240.24,126.03L237.26,130.13L231.04,125.93L234.12,123.52L234.27,121.39L236.43,116.35L240.07,114.59ZM356,45.38L356.73,46.9L355.37,47.99L356.05,52.21L355.91,55.15L354.42,58.63L352.87,60.31L354.56,62.4L353.89,65.14L354.71,66.18L353.49,68L354.04,69.95L353.77,78.91L351.69,82.69L352.49,85.46L349.92,89.26L348.22,95.15L349.3,95.68L348.13,103.38L347.32,106.36L345.73,108.48L344.28,114.99L342.49,116L341.19,119.44L339.56,120.44L338.94,123.82L337.64,125.3L337.49,128L335.32,131.38L334.69,133.56L334.96,135.68L333.89,137.55L334.92,140.27L337.1,141.27L333.66,144.17L330,145.56L327.68,143.88L325.86,144.87L322.99,145.43L321.45,147.05L322.85,149L321.39,152.19L323.36,153.86L324.75,157.33L324.67,159.26L323.19,162.1L326.11,164.84L327.41,173.69L326.96,175.7L324.7,179.38L324.23,183.41L323.16,184.44L326.48,186.59L328.85,185.86L330.65,186.33L329.8,188.41L325.32,192.97L324.93,195.9L322.75,196.55L319.43,201.09L314.71,202.25L313.14,206.2L310.81,206.89L305.43,210.27L304.96,208.09L302.81,207.77L301.04,206.41L301.46,205.22L300.68,202.34L297.85,198.16L297.83,196.64L295.96,195.27L294.46,197.55L291.06,198.01L289.04,196.92L287.4,194.21L287.36,189.02L287.76,185.15L286.28,183.54L284.06,184.62L283.14,183.82L278.1,182.37L274.79,177.73L275.08,175.15L273.24,174.5L272.84,172.08L273.47,169.67L273.12,166.92L275.24,164.88L274.76,162.01L276.65,158.5L273.93,158.21L269.72,156.33L267.12,158.95L266.57,156.14L263.55,156.69L259.87,152.89L258.65,149.45L258.83,148.44L256.56,144.34L256.16,141.89L250.88,139.56L250.61,135.22L247.4,130.99L248.68,128.58L245.75,126.45L244.77,123.41L242.88,122.78L244.37,118.12L244.39,113.82L243.78,111.07L241.35,111.54L240.01,110.83L239.96,109.28L241.6,106.99L241.79,105.41L240.28,102.5L239.39,99.25L238.59,98.51L237.81,94.46L237.96,92.64L235.97,91.81L237.14,89.01L236.96,87.33L238.22,83.39L238.13,81.79L236.65,79.64L237.53,76.17L237,74.02L235.23,71.58L234.08,67.02L234.2,62.41L237.1,56.51L238.62,54.11L238.68,50.24L236.15,48.74L232.35,47.52L227.69,46.59L225.9,45.57L226.64,43.93L226.64,40.18L221.76,36.35L216.52,40.22L213.5,40.12L210.63,38.52L209.62,36.77L205.4,33.4L204.26,31.54L202.01,31.38L200.83,30.73L200.19,29.42L199.31,29.42L194.55,25.13L196.67,21L197.06,18.75L198.37,16.66L197.57,14.45L200.35,11.74L203.07,7.39L205.79,7.29L225.96,15.85L249.98,26.19L267.02,33.48L281.38,39.73L294.3,45.5L310.74,45.42L329.56,45.4ZM199.64,29.45L201.91,32.66L200.15,34.01L198.59,32.39L198.52,31.28Z" class="land" id="MX-SON" title="Sonora"/>
    <path d="M320.71,251.23L322.55,255.41L321.87,257.97L319.96,254.71ZM316.01,248.77L317.3,249.88L320.49,256.69L319.68,257.62L318.14,252.38ZM300.98,209.55L302.06,209.69L302.81,207.77L304.96,208.09L305.43,210.27L310.81,206.89L313.14,206.2L314.71,202.25L319.43,201.09L322.75,196.55L324.93,195.9L325.32,192.97L329.8,188.41L330.65,186.33L336.01,186.07L336.69,187.15L335.95,189.92L337.95,189.9L338.43,192.64L336.56,198.62L337.65,200.51L337.45,203.2L338.9,206.95L339.58,210.31L339.69,214.99L343.29,215.97L346.68,216.33L349.05,217.16L350.86,222.93L350.63,226.76L352.2,230.07L351.39,232.46L348.91,235.09L349.81,236.65L347.5,240.47L346.04,246.56L344.97,248.9L345.9,249.63L347.28,255.41L347.28,258.13L350.74,258.02L351.03,261.13L352.39,261.49L352.55,266.84L354.01,266.88L353.83,271.81L354.68,275.84L356.28,276.22L362.27,272.79L363.26,271.54L367.37,272.95L368.71,274.11L371.66,280.07L371.2,282.71L371.79,288.03L372.31,289.31L372.26,292.85L373.64,296.69L375.1,298.69L374.89,302.07L375.32,305.6L374.8,306.72L375.97,309.65L376.14,314.72L380.07,314.24L381.86,316.89L380.79,317.63L379.37,321.76L377.01,324.3L376.59,327.12L377.54,328.29L377.74,333.23L376.86,334.41L373.47,333.61L371.46,332.11L370.2,332.89L369.41,334.99L367.13,328.55L364.55,325.08L362.87,323.75L359.49,317.49L354.18,310.4L354.03,307.92L353.15,305.55L350.97,302.53L347.75,296.41L346.2,292.31L346.25,290.84L344.16,287.74L339.8,282.47L338.72,280.42L336.15,278.01L334.71,277.6L331.48,273.64L333.93,272.92L334.06,271.03L332.58,268.39L331.32,270.31L327.33,269.3L325.98,266.4L321.98,264.68L321.78,262.04L322.96,259.23L323.31,251.02L322.17,249.36L320.45,249.39L318.72,246.39L316.15,244.35L314.91,246.82L313.49,244.23L308.33,241.02L306.76,239.52L306.22,237.35L307.33,235.77L305.44,234.39L303.58,234.55L303.67,236.42L302.04,237.98L301.31,236.23L299.1,237.7L297.69,235.17L300.3,233.71L301.74,234.01L303.59,232.43L303.58,230.88L301.11,231.59L299.66,233.76L297.01,232.35L294.47,229.06L291.09,226.95L292.3,223.69L291.78,222.22L292.47,220.18L295.77,215.81L298.09,215.05L300.41,211.48Z" class="land" id="MX-SIN" title="Sinaloa"/>
    <path d="M527.92,310.24L528.66,311.53L528.35,314.01L529.56,316.35L528.36,320.74L527.99,325.19L528.97,326.31L533.28,327.97L536.8,328.29L539.05,329.17L541.23,326.72L542.43,328.68L544.16,329.36L546.08,332.1L546.52,335.17L548.26,338.62L550.27,338.36L554.94,338.74L555.89,337.77L557.7,339.21L561.16,338.88L561.8,340.32L564.39,340.27L568.18,341.44L569.52,342.83L570.06,347.16L567.28,347.22L565.95,348.1L565.74,351.21L564.81,352.36L562.97,352.27L562.84,355.48L564.73,357.6L562.32,360.13L559.69,360.91L559.18,364.16L559.56,366L560.98,366.27L560.42,370.36L558.58,370.33L556.46,372.59L554.37,376.21L553.27,375.44L551.65,377.53L549.21,376.23L548.47,373.29L545.82,374.21L541.49,368L541.04,365.59L538.76,365.81L537,369.19L531.52,369.07L530.72,365.94L529.27,364.72L526.74,366.97L523.54,368.6L518.65,368.39L517.23,365.78L513.52,362.61L509.52,361.04L508.17,361.94L507.02,365.55L505.21,366.29L502.19,366.32L497.78,362.98L495.73,360.54L492.46,359.16L487.61,357.86L486.39,356.98L483.25,356.6L482.13,355.78L485.13,350.94L486.93,346.92L486.22,342.99L486.86,341.08L491.56,333.35L492.14,331.34L490.57,328.21L488.01,329.12L482.08,334.72L477.57,335.76L476.35,334.6L475.27,330.66L471.77,329.55L470.85,327.94L466.87,324.87L466.13,321.84L468.96,315.48L468.55,311.83L469.45,310.37L469.02,308.81L470.37,306.78L473.45,307.67L476.8,306.97L478.9,303.98L485.09,301.2L489.35,295.96L491.54,293.9L496.58,292.29L498.15,290.44L500.15,286.89L499.32,285.46L500.38,282.36L501.92,280.57L505.77,278.95L507.81,275.02L511.56,273.88L516.09,267.97L516.91,270.31L520,271.12L519.64,273.71L517.95,275.59L519.62,278.61L519.13,280.32L521.09,284.09L521.52,286.79L520.26,292.04L520.97,293.8L519.83,297.94L518.31,301.63L518.56,303.16L517.89,308.09L519.14,311.86L520.62,312.73L523.82,309.34Z" class="land" id="MX-SLP" title="San Luis Potosí"/>
    <path d="M881.4,397.13L879.75,400.3L874.42,406.31L872.67,407.64L872.09,405.41L872.56,403.05L875.75,398.44L878.14,398.87ZM802.64,483.77L802.75,480.69L805.92,477.16L807,474.44L807.22,469.72L806.93,468L807.83,465.92L807.79,463.65L806.86,461.21L807.09,458.55L808.64,453.26L808.83,450.13L810.68,448.73L812,441.62L810.26,437.23L807.44,433.41L803.96,430.16L802.8,427.92L804.18,425.44L804.77,422.56L809.4,421.76L811.19,420.03L814.05,418.74L818.12,418.19L820.02,416.32L821.8,415.88L826.29,412.63L829.12,411.82L833.32,409.59L834.61,406.67L837.6,405.47L839.75,402.08L841.14,401.38L842.22,402.61L845.63,402.2L848.09,400.86L855.05,395.88L856.52,394.18L857.1,392.23L860.86,385.38L861.15,384.19L860.28,380.26L861.38,376.39L862.8,374.39L863.44,367.9L868.32,369.19L872.83,369.42L875.09,368.39L875.92,364.71L878.34,365.61L880.96,370.62L881.27,375.58L882.5,376.02L882.15,378.68L883.31,379.72L880.78,383.7L878.65,388.68L874.18,393.48L871.18,397.13L866.35,400.88L864.01,403.86L862.45,406.91L860.53,409.04L858.27,413.96L858.29,418.68L856.49,422.82L854.17,423.37L851.91,426.73L849.6,427.35L848.61,429.61L850.88,432.69L852.08,431.12L857.2,429.76L857.66,430.76L856.41,433.86L853.9,436.22L853.02,435.37L850.65,437.04L848.79,442.68L849.94,442.4L852.17,439.92L854.01,438.69L855.52,439.14L852.63,442.41L851.78,446.39L848.83,451.54L846.79,457.44L845.64,458.64L842.93,468.22L840.96,471.14L839.8,475.29L838.51,473.84L839.42,470.45L837.98,469L838.36,467.72L834.85,466L837.33,460.17L837.53,455.99L836.43,453.72L829.45,464.81L828.63,465.79L823.4,465.79L822.25,466.82L820.78,470.57L819.41,471.98L818.59,474.51L817.16,476.22L815.42,479.82L813.72,480.8L812.85,482.57L809.85,484.92L806.32,481.84L804.27,482.33Z" class="land" id="MX-ROO" title="Quintana Roo"/>
    <path d="M545.82,374.21L544.31,377.34L538.96,379.63L537.78,378.76L535.66,380.51L535.73,381.87L533.5,386.5L531,388.49L529.07,392.26L529.47,394.11L526.59,396.09L520.23,398.41L517.79,406.47L516.41,407.45L514.51,410.08L514.48,412.22L511.96,414.7L509.08,415.08L506.07,411.33L506.22,409.55L503.97,406.82L503.51,404.76L501.58,403.02L500.76,400.73L501.33,397.4L500.07,393.45L500.93,390.29L502.67,387.05L507.77,386.7L509.57,385.83L512.49,386.29L514.58,385.04L515.84,381.3L519.03,377.21L520.82,376.53L522.35,378.66L526.17,376.37L527.33,372.96L524.95,372.44L526.62,370.1L526.74,366.97L529.27,364.72L530.72,365.94L531.52,369.07L537,369.19L538.76,365.81L541.04,365.59L541.49,368Z" class="land" id="MX-QUE" title="Querétaro"/>
    <path d="M597.07,467.84L593.28,473.2L590.55,473.83L586.15,477.2L582.19,476.1L579.76,477L577.3,479.68L575.96,482.05L574.06,482.24L573.95,480.19L572.24,475.33L570.92,473.62L572.55,472.5L572.21,470.29L568.56,471.39L565.53,476.79L568.19,479.79L565.93,482.38L563.86,482.19L562.2,480.3L560.01,480.91L556.18,480.93L554.38,481.37L551.85,483.06L550.28,484.81L548.64,483.82L547.22,481.34L542.29,482.63L542.35,481.29L538.02,479.07L538.6,476.71L535.68,477.11L534.74,474.3L532.08,472.06L532.36,470.53L535.32,468.54L536.64,466.93L539.74,464.42L542.3,467.7L543.05,466.8L542.88,458.32L546.22,450.35L547.48,448.25L548.18,442.79L547.73,439.27L548.71,436.18L548.64,433.92L550.14,433.58L554.77,438.59L556.15,441.92L560.21,444.7L561.19,444.53L565.09,441.2L567.15,442.38L569.53,441.28L571.53,438.39L575.45,438.15L576.98,436.05L575.36,435.06L575.24,433.6L573.56,431.59L571.78,432.21L571.51,430.2L566.4,424.25L564.34,426.51L561.42,426.34L561.57,420.49L563.87,416.69L565.71,410.76L565.64,408.06L563.22,408.65L562.87,406.61L567.08,404.63L568.37,402.93L572.02,399.83L572.54,396.14L573.84,392.99L575.05,392.08L576.98,388.65L580.51,388.73L579.73,391.98L579.93,394.79L582.86,397.32L583,399.33L581.02,401.74L579.43,400.61L577.99,401.54L577.25,406.48L577.28,409.4L580.22,409.81L580.81,412.01L582.2,411.8L586.24,407.31L593.53,410.37L590.56,414.68L587.89,419.97L587.68,422.18L584.63,427.71L583.55,428.88L584.37,433.24L583.62,434.28L585.31,436.03L589.16,437.04L592.15,438.62L592.14,441.81L586.24,441.68L585.47,449.69L585.12,451.08L582.61,454.08L582.06,457.79L583.06,460.08L587.07,461.47L587.6,465.32L589.27,466.66L592.72,464.12L595.42,465.14Z" class="land" id="MX-PUE" title="Puebla"/>
    <path d="M668.22,509.58L667.39,513.27L666.38,514.55L664.93,518.94L661.46,521.92L657.82,530.14L657.59,531.21L658.51,534.9L657.71,536.73L657.46,539.94L655.15,541.07L651.59,539.43L650.83,537.53L649.54,538.02L648.54,540.12L649.64,541.33L654.43,541.74L657.49,544.63L657.18,545.44L652.29,542.81L649.14,541.68L641.3,540.26L643.64,538.56L645.19,536.32L642.68,535.26L640.55,537.36L637.77,533.07L635.85,533.62L634.05,536.43L632.67,536.4L630.31,539.6L635.44,539.51L635.48,540.32L625.07,542.53L623.27,544.22L622.01,546.55L620.14,547.82L615.86,548.92L613.46,550.04L610.7,550.46L609.14,551.54L604.72,552.82L599.77,555.24L596.42,557.47L591.52,557.12L589.29,558.35L587.55,558.3L583.86,556.43L579.49,555.67L575.34,553.51L574.39,551.85L570.49,549.71L566.96,548.94L564.7,549.11L561.89,548.18L555.06,547.93L551.07,544.55L543.78,539.55L538.73,538.5L534.72,536.76L540.45,532.3L541.3,529.76L544.11,527.61L546.45,525.25L546.88,523.54L549.42,522.42L551.17,520.47L552.08,517.66L551.56,515.03L550.12,513.97L550.27,510.1L547.33,508.48L547.88,505.89L549.05,504.85L549.17,499.11L547.37,493.02L547.65,489.75L550.28,484.81L551.85,483.06L554.38,481.37L556.18,480.93L560.01,480.91L562.2,480.3L563.86,482.19L565.93,482.38L568.19,479.79L565.53,476.79L568.56,471.39L572.21,470.29L572.55,472.5L570.92,473.62L572.24,475.33L573.95,480.19L574.06,482.24L575.96,482.05L577.3,479.68L579.76,477L582.19,476.1L586.15,477.2L590.55,473.83L593.28,473.2L597.07,467.84L599.27,463.93L599.9,461.18L602,463.06L601.13,464.64L601.31,468.05L603.74,471.11L605.25,470.64L606.65,471.65L607.44,474L608.91,475.67L611.17,474.63L613.26,475.34L616.73,475.7L617.44,477L617.67,480.99L614.57,487.16L613.65,488.01L613.51,490.38L615.16,495.92L617.23,496.65L618.74,495.82L621.94,495.62L625.63,492.99L629.85,491.84L631.37,490.48L633.2,491.61L631.12,493.29L630.67,494.71L632.74,498.81L634.42,501.19L636.5,502.94L637.43,505.67L636.84,507.39L648.58,508.23Z" class="land" id="MX-OAX" title="Oaxaca"/>
    <path d="M568.97,165.48L566.32,167.88L563.1,168.82L561.66,171.79L564.05,172.57L566.29,172.38L564.65,175.23L565.8,176.24L564.81,180.74L565.76,182.07L565.38,185.8L563.23,187.43L561.72,190.23L564.73,193.18L562.8,198.48L565.13,199.48L565.56,201.71L567.53,201.98L567.83,206.85L569.16,209.78L571.27,212.73L573,211.96L573.59,216.89L577.04,217.43L578.3,220.89L580.1,221.27L582.48,219.72L587.45,219.09L588.48,222.55L587.32,226.51L587.59,228.31L586.14,231.69L586.73,235.48L589.12,236.54L585.98,240.66L584.47,241.4L580.41,244.55L575.43,245.56L572.76,249.34L569.75,249.08L568.84,247.63L564.78,252L565.67,254.04L564.85,256.04L562.67,256.97L561.76,258.88L557.93,259.57L556.32,261.48L554.81,261.16L552.49,263.9L549.05,265.42L546.55,267.03L545.29,269.55L547.85,270.18L548.07,274.01L545.74,280.15L547.11,283.55L547.79,287.91L549.1,288.85L549.38,291.66L547.03,291.13L545.88,293.07L542.92,294.41L540.29,293.59L537.48,295.08L536.1,298.46L534.07,300.6L533.2,303.05L532.61,307.32L529.31,306.86L528.28,307.68L527.92,310.24L523.82,309.34L520.62,312.73L519.14,311.86L517.89,308.09L518.56,303.16L518.31,301.63L519.83,297.94L520.97,293.8L520.26,292.04L521.52,286.79L521.09,284.09L519.13,280.32L519.62,278.61L517.95,275.59L519.64,273.71L520,271.12L516.91,270.31L516.09,267.97L516.79,267.46L518.68,263.57L518.49,260.43L517.37,258.58L518.89,255.56L520.81,255.64L521.56,252.61L521.33,249.11L523.97,245.28L526.07,244.6L527.06,243.27L528.91,243.47L529.95,245.3L533.45,246.34L535.57,246.37L537.47,243.71L536.06,241.24L532.29,240.5L533.11,239.25L529.33,236.01L529.29,231.52L527,231.43L525.08,230.48L524.61,228.38L524.97,225.45L526.79,222.02L524.38,219.8L524.04,216.13L521.63,213.74L517.82,207.63L518.95,205.79L521.51,203.72L523.35,200.51L525.64,199.1L528.42,199.11L531.13,197.28L535.17,197.17L536.98,194.59L538.32,193.69L539.81,191.06L540.72,185.04L538.88,183.3L537.62,184.19L535.98,186.94L533.47,184.5L534.08,180.59L535.71,178.33L538.43,175.89L539.63,176.33L542.14,175.26L544.53,175.4L545.58,174.25L545.79,172.16L548.83,168.2L550.06,165.48L551.45,164.73L555.5,164.43L561.22,165.51L564.7,163.93L566.53,162.29L568.17,163.47Z" class="land" id="MX-NLE" title="Nuevo León"/>
    <path d="M338.75,361.01L341.48,361.86L342.28,364.08L341.11,365.59L338.79,364.04ZM406.13,337.9L405.72,341.27L406.66,342.96L406.74,343.54L404.25,349.5L404.06,353.19L406,352.55L408.73,354.65L408.29,356.77L408.8,359.95L413.24,360.41L413.95,361.69L414.55,365.92L415.8,367.44L415.74,369.24L414.37,374.41L413.74,375.42L410.99,376.99L409.04,377.34L407.76,378.52L402.13,379.29L400.85,383.8L398.61,389.74L397.04,390.75L397.29,395.27L394.65,391.7L393.58,391.02L391.31,387.32L388.09,386.36L387.07,384.6L384.17,383.97L380.12,386.96L377.65,386.39L375.66,387.35L373.26,390.5L370.13,393.84L368.67,391.6L367.53,392.5L365.44,390.51L366.92,387.87L371.35,383.64L372.73,383.04L374.34,381.04L375.32,377.29L375.42,372.53L377.55,369.24L376.99,366.68L375.89,367.06L372.46,364.31L371.56,362.58L370.74,358.83L368.64,352.65L368.46,349.41L369.41,345.5L371.39,347.61L373.34,348.79L374.03,346.94L370.91,343.21L370.57,342.02L371.35,336.18L371.46,332.11L373.47,333.61L376.86,334.41L377.74,333.23L377.54,328.29L376.59,327.12L377.01,324.3L379.37,321.76L380.79,317.63L381.86,316.89L383.63,320.08L385.56,319.65L387.46,318.1L388.7,320.22L391.97,320.95L392.32,324.13L394.07,324.54L393.05,327.12L389.29,329.55L388.66,330.91L389.54,334.86L390.79,335.91L393.96,331.77L395.07,333.9L396.84,334.42L399.02,337.33L399.23,339.05L401.31,341.2L402.61,339.48ZM343.49,367.49L345.1,368.03L344.44,370.1L341.8,368.39Z" class="land" id="MX-NAY" title="Nayarit"/>
    <path d="M538.89,446.86L540.54,449.86L543.18,451.03L545.83,448.89L547.48,448.25L546.22,450.35L542.88,458.32L543.05,466.8L542.3,467.7L539.74,464.42L536.64,466.93L535.32,468.54L532.36,470.53L530.25,467.62L524.28,466.76L522.55,463.43L519.74,462.7L520.27,460.27L522.79,456.73L526.85,450.19L529.13,447.12L530.64,446.82L531.71,448.27L534.25,446.77L535.1,447.77Z" class="land" id="MX-MOR" title="Morelos"/>
    <path d="M503.97,406.82L506.22,409.55L506.07,411.33L509.08,415.08L508.5,418.08L509.21,419.85L507.41,421.95L506.27,425.12L503.11,426.62L503.9,429.37L503.86,433.82L503.14,435.8L501.78,436.68L500.71,440.11L499.03,443.08L495.85,447.23L493.1,448.95L491.91,451.36L488.99,453.94L487.04,456.29L486.71,454.33L484.16,456.62L484.7,461.89L484.44,465.81L486.83,470.27L484.91,471.82L480.07,467.61L478.3,468.98L476.68,465.73L474.45,465.71L469.24,464.37L466.6,465.51L462.57,466.11L460.64,465L459.92,462.81L458.43,462.6L454.89,464.15L453.8,463.43L451.91,465.75L451.52,468.65L451.97,470.4L451.33,473.05L447.69,475.07L446.79,474.76L443.72,475.78L442.48,477.19L441.93,482.19L442.58,483.06L441.14,484.67L438.13,482.85L433.87,481.34L425.45,479.18L420.23,476.19L416.9,475.56L413.37,474.22L407.18,471.13L406.38,469.35L405.5,465.27L402.76,462.49L403.33,461.45L401.97,459.1L403.05,456.99L405,456L406.14,452.94L407.2,453.34L410.37,450.54L413.94,450.42L416.73,448.3L418.67,450.49L420.78,448.33L423.45,446.83L428.59,442.4L430.26,441.49L432.7,442.22L434.09,439.35L436.32,437.31L437.53,435.4L436.91,433.47L433.19,433.57L434.4,430.36L433.15,425.17L434.86,423.24L434.04,419.72L430.7,418.57L426.72,417.81L428.02,415.94L428.52,413.04L430.54,411.54L433.16,412.09L434.05,413.7L438.64,411.51L438.99,409.99L441.43,408.28L442.58,408.38L446.45,405.95L451.68,405.74L454.25,404.46L457.35,404.44L459.16,405.09L459.35,409.71L460.63,410.37L464.97,409.86L465.91,410.23L468.7,406.78L471.17,405.93L473.4,406.12L473.76,408.95L473.26,415.08L478.27,416.91L479.71,414.95L481.81,415.08L484.37,414.33L485.06,417.57L489.13,418.87L493.31,419.01L494.62,417.82L501.52,416.1L503.06,414.68L502.68,413.01L503.53,411.24L503.26,408.16Z" class="land" id="MX-MIC" title="Michoacán"/>
    <path d="M546.58,431.22L547.29,433.47L548.64,433.92L548.71,436.18L547.73,439.27L548.18,442.79L547.48,448.25L545.83,448.89L543.18,451.03L540.54,449.86L538.89,446.86L539.67,443.77L539.43,441.2L537.01,438.2L535.95,434.2L534.6,431.9L532.17,434.61L531.18,437.06L527.89,439.57L527.07,441.68L529.13,447.12L526.85,450.19L522.79,456.73L520.27,460.27L518.4,460.72L516.33,459.89L512.69,461.15L509.55,463.98L505.63,464.26L503.13,465.08L503.63,466.8L500.99,467.42L498.2,470.24L496.59,470.54L495.4,466.99L491.67,466.09L493.84,463.84L494.15,461.01L492.58,460.5L492.47,458.52L494.09,453.26L495.62,450.87L495.85,447.23L499.03,443.08L500.71,440.11L501.78,436.68L503.14,435.8L503.86,433.82L503.9,429.37L503.11,426.62L506.27,425.12L507.41,421.95L509.21,419.85L508.5,418.08L509.08,415.08L511.96,414.7L514.48,412.22L514.51,410.08L516.41,407.45L517.79,406.47L518.8,408.19L522.18,410.32L526.38,410.87L528.1,415.75L527.13,416.99L528.23,418.54L529.62,424.96L530.71,421.63L532.86,422.88L534.21,421.11L534.76,418.11L535.73,416.89L539.6,415.98L543.53,414.35L543.78,416.01L541.7,421.3L539.32,422.69L540.69,426.13L543.1,422.94L549.63,422.18L549.48,424.33L546.64,429.46Z" class="land" id="MX-MEX" title="México"/>
    <path d="M445.41,361.31L447.91,359.95L452.45,360.41L454.05,362.13L456.21,363.38L457.61,363.3L462.05,361.42L465.65,357.09L470.79,354.69L469.11,352.08L469.57,349.41L473.26,350.51L475.34,351.9L477.75,354.77L480.1,356.16L479.11,358.75L477.49,360.41L474.58,368.03L475,371.42L473.41,373.56L472.33,373.38L469.21,378.69L466.06,381.03L463.93,384.84L457.68,391.54L459.9,393.29L461.03,396.82L458.34,401.03L457.35,404.44L454.25,404.46L451.68,405.74L446.45,405.95L442.58,408.38L441.43,408.28L438.99,409.99L438.64,411.51L434.05,413.7L433.16,412.09L430.54,411.54L428.52,413.04L428.02,415.94L426.72,417.81L430.7,418.57L434.04,419.72L434.86,423.24L433.15,425.17L434.4,430.36L433.19,433.57L436.91,433.47L437.53,435.4L436.32,437.31L434.09,439.35L432.7,442.22L430.26,441.49L428.59,442.4L423.45,446.83L420.78,448.33L418.67,450.49L416.73,448.3L413.94,450.42L410.37,450.54L410.7,448.11L410.1,446.2L411,444.56L411.91,439.4L410.39,435.88L410.84,431.03L410.18,430.87L406.93,433.86L403.03,435.94L398.76,435.65L396.78,436.49L394.02,438.67L391.38,438.56L389.61,439.26L386.52,439.16L384.74,440.91L382.94,440.45L381.35,442.41L378.82,442.62L376.35,441.39L376.15,439.51L373.83,439.92L371.83,438.59L370.1,436.46L369.45,430.9L365.29,426.89L363.68,422.75L360.49,416.17L359.74,413.31L360.32,409.07L358.07,406.04L357.5,403.12L360.06,401.1L362.52,400.42L368.47,399.67L370.36,398.32L371.45,396.34L370.13,393.84L373.26,390.5L375.66,387.35L377.65,386.39L380.12,386.96L384.17,383.97L387.07,384.6L388.09,386.36L391.31,387.32L393.58,391.02L394.65,391.7L397.29,395.27L397.04,390.75L398.61,389.74L400.85,383.8L402.13,379.29L407.76,378.52L409.04,377.34L410.99,376.99L413.74,375.42L414.37,374.41L415.74,369.24L415.8,367.44L414.55,365.92L413.95,361.69L413.24,360.41L408.8,359.95L408.29,356.77L408.73,354.65L406,352.55L404.06,353.19L404.25,349.5L406.74,343.54L406.66,342.96L408.12,341.49L409.95,341.19L410.62,338.22L414.29,336.79L414.79,337.25L412.88,341.19L415.31,340.39L416.7,338.96L416.86,337.22L415.85,332.55L416.15,331.59L418.88,329.74L420.83,329.25L423.15,329.84L423.24,331.61L421.85,332.6L418.79,336.38L416.98,340L416.24,343.01L416.58,345.42L417.66,346.58L419.01,345.01L420.63,336.45L421.46,335.75L425.38,334.94L428.05,337.16L427.94,340.92L422.39,348.43L422.66,349.79L424.79,349.8L425.72,348.84L427.74,349.71L430.24,347.07L433.3,344.76L432.29,342.85L432.94,341.24L435.16,340.35L437.51,340.56L437.03,343.97L439.36,344.14L439.75,345.3L437.58,350.31L436.31,352.38L429.93,355.51L427.6,357.63L423.92,360.15L422.8,365.36L420.6,367.66L418.53,368.22L418.91,371.25L421.04,371.31L422,372.2L421.11,374.25L415.57,376.66L415.37,377.65L417.98,378.41L419.08,381.49L422.53,381.85L425.37,383.83L429.42,382.33L431.2,382.85L433.13,381.76L433.94,379.28L436.37,378.01L437.92,378.63L442.5,375.06L445.32,373.35L446.66,371.74L447.79,368.45L445.13,366.27L444.82,364.01Z" class="land" id="MX-JAL" title="Jalisco"/>
    <path d="M560.42,370.36L561.33,372.48L560.6,374.74L562.25,376.84L564.93,377.73L566.06,376.64L568.16,377.4L570.13,381.98L567.68,384.6L566.53,387.32L566.52,389.39L564.87,389.67L563.17,387.97L560.09,390.62L558.74,392.34L557.63,396.84L556.03,401L557.55,405.52L559.92,403.34L562.89,401.92L565.42,399.17L567.32,398.27L570.15,395.41L572.54,396.14L572.02,399.83L568.37,402.93L567.08,404.63L562.87,406.61L563.22,408.65L565.64,408.06L565.71,410.76L563.87,416.69L561.57,420.49L561.42,426.34L558.89,425.72L555.86,429.04L552.44,429.1L546.58,431.22L546.64,429.46L549.48,424.33L549.63,422.18L543.1,422.94L540.69,426.13L539.32,422.69L541.7,421.3L543.78,416.01L543.53,414.35L539.6,415.98L535.73,416.89L534.76,418.11L534.21,421.11L532.86,422.88L530.71,421.63L529.62,424.96L528.23,418.54L527.13,416.99L528.1,415.75L526.38,410.87L522.18,410.32L518.8,408.19L517.79,406.47L520.23,398.41L526.59,396.09L529.47,394.11L529.07,392.26L531,388.49L533.5,386.5L535.73,381.87L535.66,380.51L537.78,378.76L538.96,379.63L544.31,377.34L545.82,374.21L548.47,373.29L549.21,376.23L551.65,377.53L553.27,375.44L554.37,376.21L556.46,372.59L558.58,370.33Z" class="land" id="MX-HID" title="Hidalgo"/>
    <path d="M520.27,460.27L519.74,462.7L522.55,463.43L524.28,466.76L530.25,467.62L532.36,470.53L532.08,472.06L534.74,474.3L535.68,477.11L538.6,476.71L538.02,479.07L542.35,481.29L542.29,482.63L547.22,481.34L548.64,483.82L550.28,484.81L547.65,489.75L547.37,493.02L549.17,499.11L549.05,504.85L547.88,505.89L547.33,508.48L550.27,510.1L550.12,513.97L551.56,515.03L552.08,517.66L551.17,520.47L549.42,522.42L546.88,523.54L546.45,525.25L544.11,527.61L541.3,529.76L540.45,532.3L534.72,536.76L529.64,529.06L525.89,529.74L518.64,526.87L511.31,524.9L506.88,524.85L503.04,522.82L501.28,520.96L499.21,520.17L498.28,517.99L486.71,512.8L479.54,510.07L469.56,505.54L469.36,504.01L466.25,500.59L459.81,497.29L460.22,496.24L458.62,494.17L457.2,494.06L455.15,492.67L454.65,490.3L452.84,488.64L451.75,485.71L447.93,483.06L445.62,482.21L442.58,483.06L441.93,482.19L442.48,477.19L443.72,475.78L446.79,474.76L447.69,475.07L451.33,473.05L451.97,470.4L451.52,468.65L451.91,465.75L453.8,463.43L454.89,464.15L458.43,462.6L459.92,462.81L460.64,465L462.57,466.11L466.6,465.51L469.24,464.37L474.45,465.71L476.68,465.73L478.3,468.98L480.07,467.61L484.91,471.82L486.83,470.27L484.44,465.81L484.7,461.89L484.16,456.62L486.71,454.33L487.04,456.29L488.99,453.94L491.91,451.36L493.1,448.95L495.85,447.23L495.62,450.87L494.09,453.26L492.47,458.52L492.58,460.5L494.15,461.01L493.84,463.84L491.67,466.09L495.4,466.99L496.59,470.54L498.2,470.24L500.99,467.42L503.63,466.8L503.13,465.08L505.63,464.26L509.55,463.98L512.69,461.15L516.33,459.89L518.4,460.72Z" class="land" id="MX-GRO" title="Guerrero"/>
    <path d="M526.74,366.97L526.62,370.1L524.95,372.44L527.33,372.96L526.17,376.37L522.35,378.66L520.82,376.53L519.03,377.21L515.84,381.3L514.58,385.04L512.49,386.29L509.57,385.83L507.77,386.7L502.67,387.05L500.93,390.29L500.07,393.45L501.33,397.4L500.76,400.73L501.58,403.02L503.51,404.76L503.97,406.82L503.26,408.16L503.53,411.24L502.68,413.01L503.06,414.68L501.52,416.1L494.62,417.82L493.31,419.01L489.13,418.87L485.06,417.57L484.37,414.33L481.81,415.08L479.71,414.95L478.27,416.91L473.26,415.08L473.76,408.95L473.4,406.12L471.17,405.93L468.7,406.78L465.91,410.23L464.97,409.86L460.63,410.37L459.35,409.71L459.16,405.09L457.35,404.44L458.34,401.03L461.03,396.82L459.9,393.29L457.68,391.54L463.93,384.84L466.06,381.03L469.21,378.69L472.33,373.38L473.41,373.56L475,371.42L474.58,368.03L477.49,360.41L479.11,358.75L480.1,356.16L482.13,355.78L483.25,356.6L486.39,356.98L487.61,357.86L492.46,359.16L495.73,360.54L497.78,362.98L502.19,366.32L505.21,366.29L507.02,365.55L508.17,361.94L509.52,361.04L513.52,362.61L517.23,365.78L518.65,368.39L523.54,368.6Z" class="land" id="MX-GUA" title="Guanajuato"/>
    <path d="M449.62,195.7L453.25,197.36L456.75,202.68L457.19,207.36L455.75,212.46L456.53,217.12L455.16,222.18L455.51,226.53L453.18,231.15L449.72,234.66L449.92,236.65L451.87,238.43L449.29,238.96L447.46,240.58L447.34,244.33L448.72,246.84L448.93,248.92L451.09,251.23L450.89,254.94L452.45,257.4L455.78,259.3L458.78,259.49L460.74,261.1L461.97,260.23L461.87,258.17L463.85,254.42L467.68,252L467.5,254.27L468.41,256.31L470.54,258.27L468.43,264.12L469.64,264.66L469.75,269.45L468.6,271.83L461.83,272.52L460.05,272.24L459,273.33L454.19,271.34L451.54,272.29L449.27,271.45L444.44,271.34L442.02,274.37L438.95,276.56L435.99,279.96L432.99,282.52L430.19,283.39L430.33,287.57L429.52,291.87L428.74,293.31L428.68,298.45L425.02,301.37L421.78,304.85L421.24,307.13L418.44,314.1L415.53,317.85L415.14,319.4L415.34,323.15L414.94,325.68L413.43,330.64L410.19,331.89L408.12,334.2L406.13,337.9L402.61,339.48L401.31,341.2L399.23,339.05L399.02,337.33L396.84,334.42L395.07,333.9L393.96,331.77L390.79,335.91L389.54,334.86L388.66,330.91L389.29,329.55L393.05,327.12L394.07,324.54L392.32,324.13L391.97,320.95L388.7,320.22L387.46,318.1L385.56,319.65L383.63,320.08L381.86,316.89L380.07,314.24L376.14,314.72L375.97,309.65L374.8,306.72L375.32,305.6L374.89,302.07L375.1,298.69L373.64,296.69L372.26,292.85L372.31,289.31L371.79,288.03L371.2,282.71L371.66,280.07L368.71,274.11L367.37,272.95L363.26,271.54L362.27,272.79L356.28,276.22L354.68,275.84L353.83,271.81L354.01,266.88L352.55,266.84L352.39,261.49L351.03,261.13L350.74,258.02L347.28,258.13L347.28,255.41L345.9,249.63L344.97,248.9L346.04,246.56L347.5,240.47L349.81,236.65L348.91,235.09L351.39,232.46L352.2,230.07L355.45,228.38L356.43,230.72L360.67,231.88L362.11,233.41L363.47,231.73L368.04,228.5L370.91,225.18L371.12,222.21L370.49,220.35L373.44,215.64L374.7,212.8L376.66,210.97L379.67,209.26L381.06,206.96L380.99,204.77L381.74,202.15L384.93,195.44L386.99,194.78L387.59,193.26L390.41,193.75L393.23,195.46L394.16,198.26L395.88,199.64L397.11,199.52L400.03,202.41L402.08,202.37L402.58,204.29L404.02,204.01L406.12,205.22L411.35,203.15L416.92,202.83L418.52,205.06L421.07,206.71L423.21,205.63L425.02,205.87L426.14,203.1L429.02,199.48L430.81,198.85L434,195.28L435.09,193.26L439.77,196.09L447.02,194.71Z" class="land" id="MX-DUR" title="Durango"/>
    <path d="M538.89,446.86L535.1,447.77L534.25,446.77L531.71,448.27L530.64,446.82L529.13,447.12L527.07,441.68L527.89,439.57L531.18,437.06L532.17,434.61L534.6,431.9L535.95,434.2L537.01,438.2L539.43,441.2L539.67,443.77Z" class="land" id="MX-CMX" title="Ciudad de México"/>
    <path d="M410.37,450.54L407.2,453.34L406.14,452.94L405,456L403.05,456.99L401.97,459.1L400.92,457.65L396.74,453.68L391.57,450.24L387.96,448.6L388.53,446.67L387.04,445.29L384.67,445.66L378.82,442.62L381.35,442.41L382.94,440.45L384.74,440.91L386.52,439.16L389.61,439.26L391.38,438.56L394.02,438.67L396.78,436.49L398.76,435.65L403.03,435.94L406.93,433.86L410.18,430.87L410.84,431.03L410.39,435.88L411.91,439.4L411,444.56L410.1,446.2L410.7,448.11Z" class="land" id="MX-COL" title="Colima"/>
    <path d="M566.53,162.29L564.7,163.93L561.22,165.51L555.5,164.43L551.45,164.73L550.06,165.48L548.83,168.2L545.79,172.16L545.58,174.25L544.53,175.4L542.14,175.26L539.63,176.33L538.43,175.89L535.71,178.33L534.08,180.59L533.47,184.5L535.98,186.94L537.62,184.19L538.88,183.3L540.72,185.04L539.81,191.06L538.32,193.69L536.98,194.59L535.17,197.17L531.13,197.28L528.42,199.11L525.64,199.1L523.35,200.51L521.51,203.72L518.95,205.79L517.82,207.63L521.63,213.74L524.04,216.13L524.38,219.8L526.79,222.02L524.97,225.45L524.61,228.38L525.08,230.48L527,231.43L529.29,231.52L529.33,236.01L533.11,239.25L532.29,240.5L536.06,241.24L537.47,243.71L535.57,246.37L533.45,246.34L529.95,245.3L528.91,243.47L527.06,243.27L526.07,244.6L523.97,245.28L521.33,249.11L521.56,252.61L520.81,255.64L518.89,255.56L517.37,258.58L518.49,260.43L518.68,263.57L516.79,267.46L514.59,266.91L511.65,268.66L509.56,267.7L508.39,266.13L507.21,261.64L506.06,260.66L502.92,260.21L500.31,260.83L499.09,261.87L495.89,261.46L496.22,257.6L493.32,257.72L491.74,254.04L490.02,252.07L487.53,250.91L485.19,248.87L475.09,248.14L468.12,250.06L467.68,252L463.85,254.42L461.87,258.17L461.97,260.23L460.74,261.1L458.78,259.49L455.78,259.3L452.45,257.4L450.89,254.94L451.09,251.23L448.93,248.92L448.72,246.84L447.34,244.33L447.46,240.58L449.29,238.96L451.87,238.43L449.92,236.65L449.72,234.66L453.18,231.15L455.51,226.53L455.16,222.18L456.53,217.12L455.75,212.46L457.19,207.36L456.75,202.68L453.25,197.36L449.62,195.7L448.94,193.54L447.34,191.94L447.52,188.59L452.35,186.55L453.22,184.74L451.05,183.02L452.14,177.38L452.42,173.07L453.41,169.55L452.34,168.96L452.72,163.69L454.22,162.34L453.71,160.59L454.85,158.67L454.43,156.99L456.59,156.55L457.97,153.11L464.95,143.17L464.41,141.52L469.29,135.56L472.64,133.89L475.65,129.27L477.31,129.24L478.72,127.42L477.01,125.8L480.64,121.02L483.91,122.46L487.55,122.37L489.59,118.79L490.51,118.66L492.37,116L494.63,115.51L496.2,113.8L496.86,110.34L499.07,108.66L499.05,107.34L503.08,100.98L505.24,98.18L511.27,96.4L513.12,96.75L516.42,93.05L519.93,94.25L520.64,95.58L522.7,96.07L524.55,95.39L527.6,95.75L529.25,95.3L533.48,97.08L536.53,96.94L538.9,95.98L540.35,98.8L543.2,101.34L542.3,104.81L544.3,105.02L544.6,106.22L546.85,106.78L547.52,109.67L550.32,111.71L552.26,113.79L553.04,117.3L554.48,119.26L553.81,123.57L555.79,128.21L555.63,132.88L557.81,135.44L557.1,136.75L558.29,139.91L557.67,141.49L558.63,144.28L558.29,145.53L559.85,148.21L562.87,149.79L564.09,152.42L564.59,154.98L566.03,157.56L565.76,161.22Z" class="land" id="MX-COA" title="Coahuila"/>
    <path d="M480.64,121.02L477.01,125.8L478.72,127.42L477.31,129.24L475.65,129.27L472.64,133.89L469.29,135.56L464.41,141.52L464.95,143.17L457.97,153.11L456.59,156.55L454.43,156.99L454.85,158.67L453.71,160.59L454.22,162.34L452.72,163.69L452.34,168.96L453.41,169.55L452.42,173.07L452.14,177.38L451.05,183.02L453.22,184.74L452.35,186.55L447.52,188.59L447.34,191.94L448.94,193.54L449.62,195.7L447.02,194.71L439.77,196.09L435.09,193.26L434,195.28L430.81,198.85L429.02,199.48L426.14,203.1L425.02,205.87L423.21,205.63L421.07,206.71L418.52,205.06L416.92,202.83L411.35,203.15L406.12,205.22L404.02,204.01L402.58,204.29L402.08,202.37L400.03,202.41L397.11,199.52L395.88,199.64L394.16,198.26L393.23,195.46L390.41,193.75L387.59,193.26L386.99,194.78L384.93,195.44L381.74,202.15L380.99,204.77L381.06,206.96L379.67,209.26L376.66,210.97L374.7,212.8L373.44,215.64L370.49,220.35L371.12,222.21L370.91,225.18L368.04,228.5L363.47,231.73L362.11,233.41L360.67,231.88L356.43,230.72L355.45,228.38L352.2,230.07L350.63,226.76L350.86,222.93L349.05,217.16L346.68,216.33L343.29,215.97L339.69,214.99L339.58,210.31L338.9,206.95L337.45,203.2L337.65,200.51L336.56,198.62L338.43,192.64L337.95,189.9L335.95,189.92L336.69,187.15L336.01,186.07L330.65,186.33L328.85,185.86L326.48,186.59L323.16,184.44L324.23,183.41L324.7,179.38L326.96,175.7L327.41,173.69L326.11,164.84L323.19,162.1L324.67,159.26L324.75,157.33L323.36,153.86L321.39,152.19L322.85,149L321.45,147.05L322.99,145.43L325.86,144.87L327.68,143.88L330,145.56L333.66,144.17L337.1,141.27L334.92,140.27L333.89,137.55L334.96,135.68L334.69,133.56L335.32,131.38L337.49,128L337.64,125.3L338.94,123.82L339.56,120.44L341.19,119.44L342.49,116L344.28,114.99L345.73,108.48L347.32,106.36L348.13,103.38L349.3,95.68L348.22,95.15L349.92,89.26L352.49,85.46L351.69,82.69L353.77,78.91L354.04,69.95L353.49,68L354.71,66.18L353.89,65.14L354.56,62.4L352.87,60.31L354.42,58.63L355.91,55.15L356.05,52.21L355.37,47.99L356.73,46.9L356,45.38L371.12,45.34L375.36,30.59L395.31,30.6L420.33,30.59L421.06,31.79L423.71,32.26L424.84,35.71L424.9,37.93L425.78,40.45L428.85,43.25L430.74,43.45L431.73,45.42L433.35,46.75L434.86,50.68L438.72,53.61L439.17,56.67L442.06,59.52L442.38,60.53L445.43,62.95L446.47,62.67L449.26,66.1L451.03,66.55L451.3,68.84L452.99,70.49L453.17,72.89L452.55,76.36L455.22,81.22L455.23,83.03L453.78,88.47L453.17,92.22L454.07,93.29L455.11,97.89L454.96,99.94L459.09,104.73L460.96,104.89L462.15,106.2L462.65,108.9L467.01,112.08L470.13,112.55L471.98,113.64L472.96,115.85L474.62,116.65L477.16,116.62Z" class="land" id="MX-CHH" title="Chihuahua"/>
    <path d="M657.46,539.94L657.71,536.73L658.51,534.9L657.59,531.21L657.82,530.14L661.46,521.92L664.93,518.94L666.38,514.55L667.39,513.27L668.22,509.58L669.45,508.16L671.75,507.09L676.35,503.46L679.67,499.49L680.01,497.47L683.31,494.14L684.85,490.44L685.2,487.49L686.19,483.83L688.78,482.73L691.52,484.36L693.05,486.34L695.71,486.06L695.49,488.35L693.3,491.72L695.49,495.62L694.85,497.95L698.09,498.7L699.24,502.43L700.84,502.73L705.39,498.95L707.82,497.4L714.53,491.88L717.15,491.08L717.55,487.9L718.67,486.94L722.28,487.56L723.37,485.25L725.98,486.28L728.65,486.15L729.6,487.86L729.32,490.37L731.95,491.94L732.82,496.08L731.67,498.7L731.99,499.85L734.35,500.05L737.64,502.4L738.57,504.65L736.92,506.28L738.42,508.95L741.35,511.21L742.62,513.86L745.26,517.96L748.67,519.43L750.81,521.4L754.2,523.58L755.4,526.32L755.29,530.37L756.9,531.95L759.13,532L759.39,533.45L761.28,533.45L761.5,536.02L759.35,540.45L759.15,544.88L741.98,544.82L723.51,544.54L711.43,563.96L706.8,571.15L710.39,577.49L709.04,579.52L707.62,580.33L707.42,583.48L706.06,585.23L706.48,590.66L704.89,594.1L703.83,595L699.43,589.85L688.85,575.17L683.95,568.71L677.14,560.56L671.74,555.13L667.98,551.73L662.65,547.88L664.08,546.73L663.11,544.41L658.1,543.13Z" class="land" id="MX-CHP" title="Chiapas"/>
    <path d="M740.3,456.42L735.98,460.2L734.21,460.25L731.36,461.29L731.21,460.19L733.95,459.7ZM781.65,390.32L780.11,399.29L783.82,399.69L785.25,402.41L787,402.2L787.85,403.42L790.03,401.16L791.25,403.67L791.4,406.07L793.2,407.51L794.57,413.01L798.44,415.6L799.29,418.68L802.14,423.1L802.8,427.92L803.96,430.16L807.44,433.41L810.26,437.23L812,441.62L810.68,448.73L808.83,450.13L808.64,453.26L807.09,458.55L806.86,461.21L807.79,463.65L807.83,465.92L806.93,468L807.22,469.72L807,474.44L805.92,477.16L802.75,480.69L802.64,483.77L802.07,487.94L785.94,487.94L766.81,487.82L751.22,487.92L751.52,485.87L744.23,482.48L742.67,480.53L738.76,479.54L735.66,479.7L734.72,484.5L731.3,485.44L729.04,484.04L726.02,483.41L725.29,481.62L721.85,478.72L719.57,472.26L720.15,470.34L719.16,468.57L718.02,469.04L714.39,465.27L713.78,460.64L715.82,460.14L726.58,459.04L728.31,459.19L729.05,460.95L730.55,461.94L729.68,463.41L728.21,461.75L727.3,463.33L730.21,465.37L737.44,467.45L739.04,467.29L740.25,465.56L745.43,463.65L746.84,460.01L748.21,457.98L747.03,455.86L745.89,456.76L744.58,454.79L744.49,452.85L752.65,448.3L754.06,446.99L758.54,444.02L763.28,439.99L765.39,437.25L766.41,433.51L766.57,430.82L767.62,428.59L767.24,427.11L768.87,424.42L773.63,420.89L775.64,417.82L775.05,414.48L775.64,412.79L776.76,404.35L776.9,400.16L779.04,395.79L780.09,392.08Z" class="land" id="MX-CAM" title="Campeche"/>
    <path d="M213.46,243.98L213.3,245.63L211.6,248.63L209.41,254.16L209.77,255.75L207.2,259.82L205.12,259.72L209.26,252.76ZM180.51,156.15L181.21,156.15L216.25,156.26L217.28,158.56L217.98,162.63L220.04,166.06L224.18,167.96L226.07,170.38L225.72,174.74L226.96,176.86L227.35,179.44L226.68,180.33L228.88,182.78L232.8,184.19L230.84,186.29L230.13,188.14L231.24,190.98L232.79,192.83L232.74,194.45L230.93,196.61L231.99,197.47L233.2,201.61L234.07,202.5L236.15,200.87L233.45,196.66L233.8,191.31L234.73,190.76L236.33,192.4L238.23,195.66L240.18,197.28L238.95,201.41L241.88,203.07L240.44,206.44L241.84,209.02L241.11,211.73L241.8,217.82L239.86,221.38L239.81,227.55L241.83,229.91L241.64,232.78L242.98,235.63L245.68,235.99L245,237.9L245.41,241.64L246.09,242.65L245.88,248.08L248.85,254.01L250.16,259.14L248.38,262.68L246.59,265.15L246.07,268.74L246.84,270.4L246.22,273.85L247.39,277.22L248.71,278.83L251.8,280.29L251.64,282.05L255.3,279.72L255.21,275.91L256.69,274.09L258.34,274.34L259.3,277.36L261.39,278.55L263.22,280.45L262.97,284.09L264.39,284.69L267.46,283.63L267.8,284.91L266.37,288.37L269.09,292.17L268.28,294.54L268.49,297.15L272.53,299.3L274.19,303.79L272.46,310.45L268.86,314.77L265,316.29L263.25,318.18L260.7,319.56L259.86,320.82L256.74,322.58L255.48,322.58L253.33,320.14L252.74,316.79L252.94,308.21L250.78,301.1L248.96,298.76L245.07,296.58L242.52,294.02L238.75,287.71L234.36,281.92L229.74,277.97L224.33,274.09L223.59,272.29L221.47,271.38L221.14,267L219.72,268L217.15,267.76L216.54,264.47L214.8,261.59L212.37,261.24L210.45,260.09L208.69,257.68L209.96,255.83L211.9,251.64L211.23,250.64L211.92,248.4L215.02,243.76L216.15,237.15L217.1,235.89L218.14,231.51L217.33,220.48L216.66,219.01L214.86,217.76L214.73,214.39L213.5,212.09L210.97,212.55L206.19,208.42L198.5,200.32L198.83,198.54L196.54,193.72L199.14,190.9L198.23,188.37L196.87,192.15L195.43,192.45L193.82,195.55L192.66,194.37L189.23,193.1L185.48,197.03L183.95,196.11L183.61,194.45L182,193.97L181.35,189.63L179.78,188.07L177.55,187.4L176.17,188.27L174.58,184.38L172.51,182.76L168.6,182.16L165.1,179.85L166.14,175.74L166.1,173.9L164.14,171.67L160.91,170.26L160.35,167.63L157.61,165.56L156.82,164.08L155.19,163.78L154.89,160.51L158.73,159.93L163.74,160.93L166.73,162.01L169.31,162.02L175.85,158.92L174.52,161.8L174.96,163.28L177.48,165.1L179.18,167.28L181.39,164.97L183.01,165.84L183.79,169.29L185.72,168.09L184.51,166.21L185.76,164.03L186.31,160.97L184.86,159.29L183.17,161.49L183.03,162.81L179.21,164.23L177.81,162.78L178.55,160.43L180.36,158.4ZM256.29,268.14L257.79,270.04L256.23,272.48L255.09,269.89ZM211.75,268.42L215.11,268.61L215.93,270.34L217.66,271.21L218.45,274.12L217.85,275.12ZM266.86,273.38L268.93,280.46L267.05,280.83L266.27,277.29ZM248.77,217.89L247.18,220.28L244.2,223.36L243.62,222.54L245.25,220.48L245.46,218.76ZM251.08,249.44L251.42,250.88L253.7,251.81L253.58,257.05L251.26,254.61L250.34,251.13ZM202.61,453.52L204.15,455.7L203.77,457.9L201.2,457.3L200.58,455.67Z" class="land" id="MX-BCS" title="Baja California Sur"/>
    <path d="M210.81,103.75L212.81,104.41L214.37,106.74L214.8,109.28L214.16,112.12L218.55,112.35L217.27,117.67L217.39,119.63L218.57,120.06L217.6,122.24L214.77,119.44L213.98,117.05L211.79,114.96L211.36,112.81L210.06,111.25L208.75,107.44ZM155.37,142.24L155.75,146.07L154.8,150.06L153.17,153.52L151.88,153.68L150.48,151.47L150.86,149.82L153.08,147.57L153.33,144.91ZM181.21,156.15L180.51,156.15L178.64,157.28L177.19,156.53L181.68,152.16L180.88,154.6ZM205.79,7.29L203.07,7.39L200.35,11.74L197.57,14.45L198.37,16.66L197.06,18.75L196.67,21L194.55,25.13L199.31,29.42L198.21,31.36L197.82,35.84L196.12,37.47L194.5,40.18L193.21,44.13L191.23,47.68L190.31,50.91L190.22,53.39L191.26,54.82L190.23,56.29L192.66,58.37L192.11,62.35L190.28,68.24L190.78,72.82L188.3,80.32L186.89,82.77L188.02,86.62L188.37,90.1L190.91,93.01L190.29,95.09L191.48,97.35L193.34,96.51L195.04,97.4L195.85,99.16L199.55,103.24L202.35,107.57L203.68,108.35L206.2,112.54L205.13,115.81L206.48,118.01L206.8,119.9L205.35,123.4L205.69,125.34L207.67,123.49L209.89,124.79L209.48,128.29L212.41,127.05L213.64,128.5L213.51,132.97L214.09,133.92L213.63,138.01L215.96,139.7L218.78,139.02L219.9,140.8L217.99,145.12L219.26,148.36L218.12,150.72L217.55,153.84L218.37,155.66L217.28,158.56L216.25,156.26L181.99,156.14L184.04,153.87L182.75,152.73L182.9,150.74L184.86,148.46L185.32,146.16L183.8,146.21L187.54,140.18L187.6,137.74L185.84,133.08L184.32,132.77L182.06,130.44L181.65,126.37L180.11,124.11L178.49,123.97L177.43,122.64L177.57,118.66L175.77,118.52L175.38,115.85L173.81,114.81L170.74,109.31L168.81,108.26L165.64,107.8L164.8,104.92L161.77,103.54L160.26,101.34L158.9,101.63L157.46,99.14L156.53,99.03L155.12,96.75L156.29,92.62L155.6,90.77L154.1,90.1L155.95,86.03L155.76,84.67L157.18,79.91L156.9,77.9L155.33,75.87L152.43,73.58L154.83,67.54L155.36,63.53L152.83,60.83L151.4,57.43L149.56,57.13L152.16,51.18L151.23,47.03L150.13,45.66L149.23,42.12L146.54,38.99L146.11,37.63L148.16,34.64L148.42,32.75L149.88,31.68L150.78,28.12L147.87,26.38L148.23,24.7L145.63,22.94L146.57,19.57L146.47,15.59L144.15,14.17L143.97,7.62L144.48,6.14L167.84,3.78L184.86,2.2L210.64,0L207.96,3.13ZM80.53,115.56L79.21,118.27L80.23,119.64L78.92,124.39L77.23,125.65L77.61,120.63L76.69,119.19L77.41,116.92Z" class="land" id="MX-BCN" title="Baja California"/>
    <path d="M445.41,361.31L443.34,358.56L443.53,357.07L445.54,353.58L449.46,349.12L451.99,344.03L455.38,342.69L459.64,340.29L462.72,337.42L463.26,339.12L465.66,341.95L468.68,343.96L468.66,345.73L469.57,349.41L469.11,352.08L470.79,354.69L465.65,357.09L462.05,361.42L457.61,363.3L456.21,363.38L454.05,362.13L452.45,360.41L447.91,359.95Z" class="land" id="MX-AGU" title="Aguascalientes"/>
  </g>
</svg>